<svg width="30" height="30" viewBox="0 0 30 30" fill="none" xmlns="http://www.w3.org/2000/svg">
<g id="3D object generation-01 1">
<path id="Vector" d="M22.3514 4.13269H7.71533C5.69523 4.13269 4.05762 5.77031 4.05762 7.79041V22.4264C4.05762 24.4465 5.69523 26.0842 7.71533 26.0842H22.3514C24.3715 26.0842 26.0091 24.4465 26.0091 22.4264V7.79041C26.0091 5.77031 24.3715 4.13269 22.3514 4.13269Z" stroke="#999999" stroke-miterlimit="10"/>
<path id="Vector_2" d="M6.22621 18.2808C6.62374 17.4626 7.0161 16.6417 7.42394 15.8312C8.4341 13.8178 9.44511 11.8103 10.457 9.80897C10.5193 9.65706 10.6211 9.52455 10.7518 9.42517C10.8825 9.32578 11.0374 9.26312 11.2004 9.24367C11.3864 9.22211 11.5743 9.26058 11.7369 9.35346C11.8994 9.44635 12.028 9.58877 12.1039 9.75993C12.51 10.5567 12.9118 11.3543 13.3093 12.1528C13.3351 12.2086 13.3741 12.2574 13.4229 12.2948V12.1167C13.4229 10.9706 13.4229 9.82188 13.4229 8.67578C13.414 8.44035 13.4639 8.20643 13.568 7.99508C13.6721 7.78374 13.8272 7.60162 14.0192 7.46514C14.4622 7.13625 14.9698 6.90488 15.5086 6.78626C16.9102 6.42805 18.3837 6.46558 19.7652 6.89467C20.2123 7.02404 20.6273 7.24563 20.9836 7.54516C21.1487 7.67552 21.2814 7.84248 21.371 8.03287C21.4606 8.22325 21.5047 8.43186 21.4998 8.64222C21.4998 10.2142 21.4998 11.7863 21.4998 13.3557C21.4934 13.4165 21.507 13.4777 21.5387 13.5299C21.5705 13.5821 21.6185 13.6225 21.6754 13.6448C22.1994 13.9391 22.7466 14.2437 23.2964 14.5354C23.4692 14.6147 23.6139 14.7444 23.7116 14.9075C23.8092 15.0706 23.8553 15.2594 23.8437 15.4491C23.8437 17.1167 23.8437 18.7851 23.8437 20.4543C23.8566 20.6469 23.8091 20.8387 23.7077 21.003C23.6064 21.1673 23.4563 21.2958 23.2784 21.3707C21.9246 22.0184 20.6055 22.7361 19.3264 23.5209C19.1802 23.6186 19.0089 23.672 18.833 23.6747C18.6572 23.6775 18.4843 23.6295 18.3351 23.5364C17.0367 22.8188 15.7177 22.0986 14.3986 21.3965C14.2005 21.3122 14.0349 21.1661 13.9265 20.9801C13.8181 20.794 13.7728 20.5779 13.7972 20.364C13.7972 20.3072 13.7972 20.2504 13.7972 20.1807C13.4539 20.2504 13.1286 20.333 12.7982 20.3872C10.7285 20.7328 8.60268 20.369 6.76571 19.3547C6.62885 19.2762 6.50992 19.17 6.41657 19.0429C6.32321 18.9157 6.25749 18.7705 6.22363 18.6164L6.22621 18.2808ZM11.1565 20.0361C11.9858 20.0401 12.812 19.9351 13.6139 19.7238C13.7507 19.6877 13.8049 19.636 13.8024 19.4837C13.8024 18.1311 13.8024 16.7785 13.8024 15.4259C13.7975 15.2066 13.8626 14.9914 13.9882 14.8116C14.0046 14.7828 14.0144 14.7508 14.0171 14.7178C14.0198 14.6848 14.0152 14.6516 14.0037 14.6205C13.2276 13.0718 12.4532 11.523 11.6805 9.97418C11.6505 9.9006 11.5992 9.83763 11.5332 9.79331C11.4673 9.74898 11.3896 9.72531 11.3101 9.72531C11.2306 9.72531 11.153 9.74898 11.087 9.79331C11.021 9.83763 10.9697 9.9006 10.9397 9.97418C9.56299 12.7104 8.18629 15.4466 6.80959 18.1827C6.77046 18.2494 6.74604 18.3237 6.73797 18.4006C6.72991 18.4775 6.73839 18.5552 6.76284 18.6286C6.78728 18.7019 6.82714 18.7692 6.87972 18.8258C6.93231 18.8825 6.99641 18.9273 7.06772 18.9571C8.32315 19.6426 9.72631 20.0129 11.1565 20.0361ZM14.3006 15.3898C14.2981 15.4371 14.2981 15.4844 14.3006 15.5317C14.3006 17.1812 14.3006 18.8332 14.3006 20.4853C14.2961 20.5739 14.3183 20.6619 14.3643 20.7378C14.4103 20.8138 14.478 20.8741 14.5587 20.9112C15.8493 21.6081 17.14 22.3128 18.4307 23.0124L18.5984 23.0924V22.9065C18.5984 21.2364 18.5984 19.5689 18.5984 17.9014C18.6061 17.8431 18.5936 17.784 18.5631 17.7338C18.5326 17.6836 18.4859 17.6453 18.4307 17.6252C17.1348 16.9265 15.8442 16.2235 14.5587 15.5163L14.3006 15.3898ZM19.0631 23.1001L19.1715 23.0537L23.1054 20.9086C23.1888 20.8687 23.2582 20.8044 23.3043 20.7242C23.3504 20.644 23.371 20.5517 23.3635 20.4595C23.3635 18.8264 23.3635 17.1915 23.3635 15.555C23.3635 15.5085 23.3635 15.462 23.3635 15.4001C23.299 15.4337 23.2525 15.4543 23.2087 15.4801C21.887 16.1977 20.5637 16.9153 19.2386 17.6329C19.189 17.6543 19.1474 17.6908 19.1196 17.7371C19.0919 17.7834 19.0793 17.8372 19.0837 17.8911C19.0837 19.5586 19.0837 21.2261 19.0837 22.8936L19.0631 23.1001ZM13.9392 9.4321C13.9392 9.48631 13.9392 9.51212 13.9392 9.54052V13.255C13.935 13.2953 13.9403 13.3359 13.9547 13.3738C14.1328 13.7377 14.3135 14.0965 14.4993 14.4631L14.6981 14.3598C15.9139 13.6964 17.1323 13.0382 18.3481 12.3696C18.4973 12.2784 18.6688 12.2301 18.8437 12.2301C19.0186 12.2301 19.1901 12.2784 19.3393 12.3696C19.8555 12.6536 20.3537 12.9246 20.8622 13.1982C20.9061 13.2215 20.95 13.2395 21.0016 13.2628V9.43985C19.9407 10.2142 18.7327 10.3923 17.4859 10.3949C16.2391 10.3975 15.0001 10.2039 13.9392 9.4321ZM23.0744 14.9845L22.9918 14.9303L19.0424 12.7775C18.9704 12.7361 18.8883 12.7157 18.8053 12.7184C18.7223 12.7211 18.6418 12.747 18.5726 12.793L14.76 14.858C14.7007 14.889 14.6439 14.9226 14.5716 14.9664C14.6007 14.9869 14.6309 15.0058 14.6619 15.0232C16.0145 15.7598 17.3663 16.4963 18.7172 17.2328C18.7575 17.2554 18.8038 17.2652 18.8498 17.2611C18.8959 17.2569 18.9396 17.239 18.9753 17.2096L21.4482 15.8621L23.0744 14.9845ZM17.4214 9.91481C18.1114 9.92227 18.7992 9.83543 19.4658 9.65668C19.8828 9.54837 20.2747 9.35987 20.6196 9.10169C21.1204 8.70675 21.1359 8.25502 20.6196 7.87299C20.4203 7.71238 20.1986 7.58192 19.9614 7.48579C18.4044 6.89495 16.689 6.87119 15.1163 7.41868C14.763 7.52457 14.44 7.71304 14.1741 7.9685C13.8308 8.30665 13.8256 8.65255 14.1741 8.98037C14.343 9.13396 14.5324 9.2634 14.7368 9.36499C15.5797 9.74527 16.4968 9.93309 17.4214 9.91481Z" fill="#999999" stroke="#999999" stroke-width="0.5" stroke-miterlimit="10"/>
</g>
</svg>
