<svg id="Layer_1" data-name="Layer 1" xmlns="http://www.w3.org/2000/svg" viewBox="0 0 116.22 116.22"><path d="M68.47,59.56c-.48.35-.75.61-1.07.79q-7.73,4.24-15.47,8.46a3.62,3.62,0,0,0-1.55,1.55Q46.21,78.07,42,85.75a4,4,0,0,1-.84.85,5.22,5.22,0,0,1-.82-.88C37.43,80.5,34.58,75.25,31.69,70a2.83,2.83,0,0,0-1.05-1C25.42,66.1,20.18,63.25,15,60.36a4.11,4.11,0,0,1-.85-.82,4.49,4.49,0,0,1,.86-.83C20.14,55.86,25.33,53,30.5,50.18a3.57,3.57,0,0,0,1.29-1.3c2.86-5.16,5.68-10.36,8.53-15.53a4.77,4.77,0,0,1,.84-.84,4.54,4.54,0,0,1,.83.87c2.85,5.17,5.67,10.36,8.54,15.53a3.37,3.37,0,0,0,1.22,1.24c5.19,2.87,10.41,5.71,15.61,8.56A11.13,11.13,0,0,1,68.47,59.56Z"/><path d="M102.38,81.64a10,10,0,0,1-1,.71c-3.62,2-7.25,4-10.86,6a2.91,2.91,0,0,0-1.1,1.1c-2,3.61-4,7.25-6,10.86a4.18,4.18,0,0,1-.69.77,4.09,4.09,0,0,1-.76-.8c-2-3.61-4-7.25-6-10.85a2.94,2.94,0,0,0-1-1.06c-3.64-2-7.3-4-10.94-6a3.71,3.71,0,0,1-.72-.71,4.1,4.1,0,0,1,.75-.7c3.64-2,7.3-4,10.94-6a2.56,2.56,0,0,0,1-1c2-3.64,4-7.3,6-10.94a4.53,4.53,0,0,1,.69-.77,4.09,4.09,0,0,1,.76.8c2,3.61,4,7.25,6,10.86a2.81,2.81,0,0,0,1,1c3.63,2,7.29,4,10.94,6A8.89,8.89,0,0,1,102.38,81.64Z"/><path d="M87.91,30.2a8.38,8.38,0,0,1-.9.64c-2.5,1.39-5,2.74-7.51,4.15a3.13,3.13,0,0,0-1.17,1.17c-1.41,2.49-2.76,5-4.14,7.52a4.22,4.22,0,0,1-.64.7,3.83,3.83,0,0,1-.64-.7c-1.4-2.52-2.76-5.08-4.18-7.59A3.14,3.14,0,0,0,67.61,35C65.1,33.56,62.55,32.2,60,30.8a3.5,3.5,0,0,1-.64-.58,3.33,3.33,0,0,1,.65-.65c2.56-1.42,5.14-2.8,7.68-4.23a2.74,2.74,0,0,0,1-1c1.43-2.55,2.82-5.12,4.24-7.68a3.38,3.38,0,0,1,.65-.66,3.82,3.82,0,0,1,.58.64c1.4,2.53,2.77,5.08,4.19,7.6a3.08,3.08,0,0,0,1.1,1.11c2.52,1.43,5.07,2.79,7.6,4.19A7.76,7.76,0,0,1,87.91,30.2Z"/></svg>