<svg id="Layer_1" data-name="Layer 1" xmlns="http://www.w3.org/2000/svg" viewBox="0 0 116.22 116.22"><path d="M86.8,101.06c-2-.67-2.68-2.08-2.68-4.14q.06-28.65,0-57.3a6.62,6.62,0,0,0-5.67-6.9,9.08,9.08,0,0,0-1.57-.08H42.61A3.37,3.37,0,0,1,39,29.69,3.31,3.31,0,0,1,42.25,26c2.32,0,4.65,0,7,0H77.38A13.23,13.23,0,0,1,90.52,36.72a14.78,14.78,0,0,1,.26,3q0,21.84,0,43.69v1.07h2.94c1.24,0,2.49,0,3.73,0a3.32,3.32,0,0,1,0,6.63c-2.18,0-4.36,0-6.66,0v2.42c0,1.13-.06,2.27,0,3.4a3.67,3.67,0,0,1-2.67,4.14Z"/><path d="M15.71,28.65A3.71,3.71,0,0,1,19.86,26c1.9.08,3.81,0,5.82,0V23.48c0-1.39,0-2.77,0-4.16a3.32,3.32,0,0,1,6.63,0c0,.28,0,.55,0,.83V77.19c0,4.54,2.74,7.26,7.3,7.26h34.3a3.32,3.32,0,1,1,.49,6.63h-.58q-17.36,0-34.72,0A13.21,13.21,0,0,1,26,80.38a14.62,14.62,0,0,1-.26-3q0-21.84,0-43.69v-1.1h-2c-1.27,0-2.55-.06-3.82,0A3.68,3.68,0,0,1,15.71,30Z"/></svg>