<svg id="Layer_1" data-name="Layer 1" xmlns="http://www.w3.org/2000/svg" viewBox="0 0 116.22 116.22"><path d="M79.69,101.06H37.1a.91.91,0,0,0-.22-.11A7.41,7.41,0,0,1,30.58,94c-.44-4.73-.8-9.48-1.19-14.22L28,62.69q-.63-7.65-1.27-15.3c-.17-2.12-.34-4.23-.51-6.39h64.4a1.6,1.6,0,0,1,0,.27q-.9,10.95-1.81,21.91-1.24,15-2.48,29.94A8.54,8.54,0,0,1,84,98.89,8.86,8.86,0,0,1,79.69,101.06ZM48.42,88.74c-.16-2.63-.28-4.64-.4-6.66q-.65-10.26-1.28-20.53-.42-6.61-.83-13.24a2.38,2.38,0,0,0-1.32-2.08A2.47,2.47,0,0,0,41,48.53c.06,2.15.24,4.31.37,6.46l1.26,20.2c.29,4.5.56,9,.85,13.49a2.5,2.5,0,0,0,5,.06Zm20-.4a2.47,2.47,0,0,0,2.4,2.75c1.48.06,2.51-1,2.6-2.72,0-.8.1-1.6.15-2.4q.54-8.62,1.07-17.23c.41-6.63.84-13.25,1.24-19.88A2.51,2.51,0,0,0,73.46,46a2.59,2.59,0,0,0-2.6,2.73q-.51,8.4-1,16.81C69.34,73,68.87,80.57,68.38,88.34ZM60.89,68.52V49.09c0-2-.92-3.15-2.5-3.15S55.9,47.1,55.9,49.09V87.94a7.63,7.63,0,0,0,0,.83,2.42,2.42,0,0,0,1.67,2.17,2.48,2.48,0,0,0,3.3-2.58Q60.9,78.44,60.89,68.52Z"/><path d="M40.8,26a28.9,28.9,0,0,1,.42-4.33,7.21,7.21,0,0,1,7.22-5.61q9.95-.09,19.88,0a7.45,7.45,0,0,1,7.54,7.55c0,.77,0,1.54,0,2.39h1c4.58,0,9.15,0,13.73,0a5,5,0,0,1,5.07,3.63,4.93,4.93,0,0,1-3.75,6.19,6.72,6.72,0,0,1-1.49.14h-64c-2.54,0-4.44-1.22-5.14-3.29A5,5,0,0,1,26.14,26c4.6,0,9.2,0,13.8,0Zm30.07,0V24.29c0-2.42-.84-3.26-3.22-3.26H54.77c-2.08,0-4.15,0-6.23,0A2.45,2.45,0,0,0,46,23.23c-.08.89,0,1.8,0,2.74Z"/></svg>