<svg id="Layer_1" data-name="Layer 1" xmlns="http://www.w3.org/2000/svg" viewBox="0 0 116.22 116.22"><path d="M22.81,101.05A5.43,5.43,0,0,1,19,98.17a6.42,6.42,0,0,1-.62-2.45c0-7,0-13.89,0-20.84a2.81,2.81,0,0,1,0-.36H28.92V90.37h58.6V74.52H98.19v20c0,3.83-.92,5.16-4.49,6.49Z"/><path d="M50.27,53.22v-1q0-16.44,0-32.87c0-2.33.95-3.28,3.27-3.28h9.64c2,0,3.06,1,3.06,3.08V53.22h.94c3.07,0,6.15,0,9.23,0a2.82,2.82,0,0,1,2.88,1.56A2.76,2.76,0,0,1,78.6,58L60.53,78.57c-1.43,1.64-3.11,1.65-4.53,0Q46.93,68.26,37.87,57.92a2.71,2.71,0,0,1-.66-3.11,2.8,2.8,0,0,1,2.85-1.6c3.08,0,6.16,0,9.23,0Z"/></svg>