<svg id="Layer_1" data-name="Layer 1" xmlns="http://www.w3.org/2000/svg" viewBox="0 0 116.22 116.22"><path d="M107.35,25.52c-.42,2.52-1.92,4.36-3.63,6.14q-21,21.83-41.88,43.71a6.43,6.43,0,0,0-.56.86c-2.52-7-6.92-11.63-14.22-13.76a11.32,11.32,0,0,0,1.08-.73L92.91,19c3.12-3,6.82-3.54,10.34-1.54a8,8,0,0,1,3.91,5.42c.06.24.13.48.19.72Z"/><path d="M9.14,89.65c2.62-1,5.3-1.86,7.83-3,3.74-1.73,6.31-4.77,8.52-8.16a30.08,30.08,0,0,1,4.33-5.69c4.57-4.26,10-6.08,16.23-4.52,4.84,1.22,7.91,4.56,9.5,9.18,2.66,7.78-.42,15.61-7.72,19.92a30.41,30.41,0,0,1-18,3.9,31.2,31.2,0,0,1-13.67-4,15.42,15.42,0,0,1-6.87-7.22c0-.08-.12-.14-.18-.21Z"/></svg>