<svg id="Layer_1" data-name="Layer 1" xmlns="http://www.w3.org/2000/svg" viewBox="0 0 116.22 116.22"><defs><style>.cls-1{fill:none;stroke:#000;stroke-miterlimit:10;stroke-width:6px;}</style></defs><rect class="cls-1" x="15.72" y="16.01" width="85.04" height="85.04" rx="14.17"/><path d="M27.14,60.49V56.6c.09-.74.16-1.48.27-2.22A30.47,30.47,0,0,1,39.05,34.11,30.12,30.12,0,0,1,64,28a30,30,0,0,1,19.1,11.83,30.38,30.38,0,0,1,6,22.93A30,30,0,0,1,81.68,79a30.48,30.48,0,0,1-18,10.2c-1.15.21-2.31.33-3.47.49H56.3c-.76-.1-1.52-.18-2.28-.29A31.19,31.19,0,0,1,27.62,64C27.42,62.81,27.3,61.64,27.14,60.49ZM54.69,64c0,.52,0,1.05,0,1.57a3.18,3.18,0,0,0,6.25.43,5.37,5.37,0,0,0,.11-1.39,4,4,0,0,1,1.51-3.3c.69-.55,1.44-1,2.16-1.57,1.34-1,2.75-1.86,4-2.94A8.74,8.74,0,0,0,72,50.12a9.74,9.74,0,0,0-5.13-9c-4.43-2.62-9.1-2.61-13.76-.67a11.8,11.8,0,0,0-6.88,7.64,3.48,3.48,0,0,0,6.59,2.22A6.76,6.76,0,0,1,55,46.91,7.4,7.4,0,0,1,62.44,46a4.12,4.12,0,0,1,1.89,6.26,8.87,8.87,0,0,1-2,2c-1.11.83-2.33,1.52-3.49,2.3C56.22,58.36,54.5,60.65,54.69,64ZM61.85,75.2c-.05-.62-.06-1.19-.15-1.74a1.91,1.91,0,0,0-1.85-1.77,25.33,25.33,0,0,0-3.26,0,1.79,1.79,0,0,0-1.77,1.69,24.3,24.3,0,0,0,0,3.62,1.72,1.72,0,0,0,1.6,1.57,28.19,28.19,0,0,0,3.56,0A1.81,1.81,0,0,0,61.68,77C61.77,76.36,61.8,75.75,61.85,75.2Z"/></svg>