<svg width="27" height="22" viewBox="0 0 27 22" fill="none" xmlns="http://www.w3.org/2000/svg">
<g id="Filters 1" clip-path="url(#clip0_331_772)">
<path id="Vector" d="M0 10.7846C0.204284 10.295 0.569177 10.1251 1.08693 10.1337C2.50988 10.1552 3.93353 10.1394 5.35647 10.143C5.51004 10.143 5.6002 10.128 5.65867 9.943C5.87845 9.21555 6.32101 8.57865 6.92172 8.12533C7.52242 7.672 8.24981 7.42598 8.99766 7.4232C10.5319 7.41532 11.8717 8.42252 12.3613 9.95017C12.3796 10.0082 12.4015 10.0656 12.4282 10.1409H25.9737C26.079 10.1361 26.1845 10.1399 26.2892 10.1523C26.4895 10.1906 26.6694 10.3012 26.7959 10.4637C26.9224 10.6262 26.9869 10.8298 26.9777 11.0369C26.9684 11.244 26.8859 11.4407 26.7455 11.5909C26.605 11.7411 26.416 11.8346 26.2132 11.8542C26.1167 11.8613 26.0194 11.8542 25.9229 11.8542H12.4212C12.2685 12.4482 11.9732 12.9943 11.5618 13.4435C9.73026 15.4134 6.51103 14.6844 5.67558 12.1051C5.61218 11.9087 5.53469 11.8477 5.33181 11.8492C3.91732 11.8592 2.50213 11.8398 1.08834 11.8621C0.569882 11.8707 0.206397 11.6986 0 11.2104V10.7846ZM10.8271 10.9997C10.8257 10.6325 10.7173 10.274 10.5157 9.96943C10.3141 9.66491 10.0283 9.42806 9.69444 9.28882C9.36057 9.14958 8.99363 9.11421 8.64002 9.18719C8.2864 9.26016 7.96198 9.4382 7.70779 9.69879C7.45359 9.95938 7.28102 10.2908 7.21191 10.6512C7.1428 11.0116 7.18025 11.3847 7.31951 11.7235C7.45878 12.0622 7.69361 12.3513 7.99432 12.5542C8.29503 12.7572 8.64812 12.8648 9.00893 12.8635C9.24879 12.8626 9.48612 12.8135 9.70735 12.7192C9.92857 12.6248 10.1294 12.487 10.2982 12.3137C10.4671 12.1403 10.6007 11.9348 10.6914 11.7088C10.7822 11.4828 10.8283 11.2409 10.8271 10.9968V10.9997Z" fill="white"/>
<path id="Vector_2" d="M0 18.1899C0.222599 17.6945 0.612148 17.5554 1.12708 17.5569C5.49453 17.5691 9.86199 17.5619 14.2294 17.5698C14.4866 17.5698 14.5979 17.5103 14.6866 17.245C14.9274 16.5421 15.3785 15.9336 15.9766 15.505C16.5747 15.0764 17.2898 14.8493 18.0212 14.8555C18.7527 14.8618 19.4639 15.1011 20.0548 15.5398C20.6458 15.9786 21.0868 16.5947 21.316 17.3017C21.3864 17.5103 21.4724 17.5705 21.6837 17.5691C23.1158 17.559 24.5479 17.5619 25.9807 17.5691C26.1382 17.5649 26.2954 17.585 26.447 17.6286C26.6262 17.6947 26.7779 17.821 26.8771 17.9866C26.9763 18.1522 27.0172 18.3473 26.993 18.5397C26.9696 18.7372 26.8777 18.9198 26.7339 19.0545C26.59 19.1892 26.4036 19.2672 26.2082 19.2745C25.4334 19.291 24.662 19.2831 23.8893 19.2838C23.1419 19.2838 22.3952 19.2888 21.6485 19.2802C21.4738 19.2802 21.3928 19.3211 21.3343 19.5068C21.1115 20.2307 20.6674 20.8633 20.0667 21.3125C19.466 21.7617 18.74 22.0039 17.9946 22.0039C17.2492 22.0039 16.5232 21.7617 15.9225 21.3125C15.3218 20.8633 14.8777 20.2307 14.6549 19.5068C14.588 19.2917 14.476 19.286 14.3083 19.286C9.88875 19.286 5.46988 19.286 1.0503 19.2938C0.538183 19.2938 0.188082 19.1139 0.0021132 18.6257L0 18.1899ZM16.1694 18.4264C16.1693 18.794 16.2764 19.1534 16.4771 19.459C16.6778 19.7646 16.9632 20.0026 17.297 20.143C17.6308 20.2834 17.9981 20.3199 18.3523 20.2477C18.7064 20.1755 19.0316 19.9979 19.2865 19.7375C19.5414 19.477 19.7146 19.1455 19.7842 18.7848C19.8538 18.4241 19.8166 18.0505 19.6773 17.7113C19.5381 17.3721 19.303 17.0827 19.0019 16.8796C18.7009 16.6765 18.3474 16.5689 17.9861 16.5705C17.5036 16.572 17.0413 16.7682 16.7007 17.1162C16.3601 17.4641 16.1691 17.9353 16.1694 18.4264Z" fill="white"/>
<path id="Vector_3" d="M0 3.37985C0.183151 2.88808 0.533252 2.71029 1.04678 2.71173C5.43959 2.72248 9.83311 2.71531 14.2259 2.72391C14.483 2.72391 14.595 2.66441 14.6831 2.39774C14.9218 1.69364 15.3716 1.08348 15.969 0.653177C16.5664 0.222878 17.2815 -0.00588337 18.0134 -0.000896737C18.7453 0.00408989 19.4572 0.242574 20.0489 0.680975C20.6406 1.11938 21.0823 1.73561 21.3118 2.4429C21.3822 2.66585 21.4794 2.72391 21.6964 2.72248C23.1376 2.71316 24.5789 2.71029 26.0194 2.72606C26.2442 2.72715 26.4646 2.78953 26.6577 2.90671C26.9549 3.10099 27.0592 3.42143 26.9683 3.77771C26.934 3.94107 26.8509 4.08966 26.7305 4.2032C26.6101 4.31675 26.4582 4.38972 26.2956 4.41214C26.1827 4.42924 26.0687 4.43668 25.9546 4.43436C24.5225 4.43436 23.0904 4.43795 21.6576 4.43436C21.4745 4.43436 21.3871 4.47666 21.3244 4.67308C21.0971 5.39249 20.6508 6.0197 20.0502 6.46407C19.4496 6.90843 18.7256 7.14693 17.9831 7.14509C17.2405 7.14326 16.5177 6.90118 15.9192 6.45386C15.3207 6.00653 14.8774 5.37712 14.6535 4.65659C14.5866 4.44153 14.476 4.4358 14.3083 4.4358C9.91482 4.4358 5.52201 4.43221 1.1292 4.44512C0.611443 4.44512 0.226121 4.30174 0.0021132 3.8114L0 3.37985ZM17.9995 5.42508C18.36 5.42323 18.7119 5.3126 19.0106 5.10719C19.3093 4.90178 19.5415 4.61082 19.6777 4.27113C19.8139 3.93143 19.848 3.55825 19.7757 3.19882C19.7034 2.83938 19.528 2.50983 19.2717 2.25187C19.0153 1.9939 18.6896 1.81911 18.3356 1.7496C17.9816 1.6801 17.6153 1.719 17.2831 1.8614C16.9508 2.00379 16.6675 2.24327 16.469 2.54955C16.2706 2.85583 16.1658 3.21513 16.168 3.58201C16.1723 4.07307 16.3673 4.54249 16.7104 4.88778C17.0536 5.23308 17.517 5.42623 17.9995 5.42508Z" fill="white"/>
</g>
<defs>
<clipPath id="clip0_331_772">
<rect width="27" height="22" fill="white"/>
</clipPath>
</defs>
</svg>
