<svg width="26" height="35" viewBox="0 0 26 35" fill="none" xmlns="http://www.w3.org/2000/svg">
<path id="Vector" d="M13.1966 13.7003C14.6678 17.6375 13.9477 21.2054 11.802 24.6554C11.5231 22.4377 11.283 20.2368 9.7055 18.3535C9.63692 19.0976 9.59119 19.7149 9.52032 20.3311C9.34199 21.8855 8.88588 23.3614 8.26287 24.8013C6.94598 27.8384 7.15899 30.7688 8.90188 33.5926C9.17052 34.0292 9.4323 34.4691 9.70208 34.9068L9.62434 35C8.78528 34.6386 7.91993 34.3266 7.10945 33.9068C3.08449 31.8238 0.702202 28.5746 0.112346 24.1302C-0.210017 21.7003 0.152355 19.3266 1.31606 17.1582C2.57351 14.8182 3.47887 12.3883 3.87896 9.77553C3.89382 9.68014 3.92698 9.58698 3.96927 9.42536C4.76946 10.7643 5.53536 12.0606 5.86916 13.679C8.94532 9.5578 10.4417 5.04489 10.556 0C12.88 1.33895 14.7947 3.00786 16.3139 5.10999C17.8319 7.21049 18.8624 9.61216 19.333 12.1459C20.7184 10.5062 20.6601 8.61167 20.5984 6.69921C20.6704 6.72054 20.7196 6.72054 20.7379 6.74299C22.5863 8.98765 24.1478 11.3973 25.0109 14.1886C26.2443 18.1773 26.4524 22.1672 24.8966 26.1223C23.5488 29.541 21.1951 32.1212 17.9521 33.9248C17.2637 34.3146 16.5551 34.669 15.8293 34.9865C15.9116 34.8373 15.9904 34.6857 16.0773 34.5376C17.0421 32.9012 17.9909 31.2559 18.423 29.3895C19.8199 23.3558 18.1944 18.2267 13.6002 14C13.503 13.9203 13.4001 13.8541 13.1966 13.7003Z" fill="white"/>
</svg>
