<svg id="Layer_1" data-name="Layer 1" xmlns="http://www.w3.org/2000/svg" viewBox="0 0 116.22 116.22"><defs><style>.cls-1{fill:none;stroke:#000;stroke-miterlimit:10;stroke-width:6px;}</style></defs><path d="M86.54,37.09a6.91,6.91,0,0,1-2.16,4.79q-6.47,6.45-12.91,12.91L35.54,90.74c-1.17,1.17-1.6,1.17-2.76,0L26.06,84c-1-1-1-1.54,0-2.55L68.22,39.29c2.33-2.33,4.65-4.67,7-7a6.23,6.23,0,0,1,6.54-1.64,6.41,6.41,0,0,1,4.61,4.94A14.58,14.58,0,0,1,86.54,37.09ZM34,88.34,75.51,47l-5.59-5.58L28.51,82.77ZM77.49,44.89c1.89-1.81,3.92-3.55,5.71-5.51a3.88,3.88,0,0,0-.57-5.45,4,4,0,0,0-5.45,0c-.75.69-1.45,1.44-2.18,2.16L71.82,39.2Z"/><path d="M49.51,48.18a1.3,1.3,0,0,1-1.24-1.24A13.53,13.53,0,0,0,47.74,44a8.77,8.77,0,0,0-8.11-6,2.78,2.78,0,0,1-.87-.14,1.12,1.12,0,0,1-.67-1.29,1.11,1.11,0,0,1,1-1,24.28,24.28,0,0,0,2.44-.34,9,9,0,0,0,6.73-8.53c0-.86.52-1.4,1.24-1.4a1.31,1.31,0,0,1,1.25,1.33c0,.13,0,.25,0,.38a8.7,8.7,0,0,0,3.09,6.33A8.53,8.53,0,0,0,59,35.42c.3,0,.6,0,.9.09a1.22,1.22,0,0,1-.08,2.42c-.69.09-1.39.12-2.07.27a8.89,8.89,0,0,0-7,8.28C50.73,47.61,50.3,48.18,49.51,48.18Zm5-11.47a12.07,12.07,0,0,1-5-5,12.06,12.06,0,0,1-5,5,12.19,12.19,0,0,1,5,5A12.14,12.14,0,0,1,54.49,36.71Z"/><path d="M80.09,55.91a1.26,1.26,0,0,1,1.3,1.18,18.48,18.48,0,0,0,.41,2.58A8.85,8.85,0,0,0,90,66.1h.22c.87.06,1.41.53,1.42,1.24s-.54,1.2-1.45,1.26a8.77,8.77,0,0,0-8,5.44,13.56,13.56,0,0,0-.75,3.33c-.15,1-.5,1.44-1.27,1.43s-1.19-.47-1.23-1.47a9,9,0,0,0-7.1-8.52A14.91,14.91,0,0,0,70,68.61a1.28,1.28,0,0,1-1.34-1.22A1.3,1.3,0,0,1,70,66.11a17.14,17.14,0,0,0,2.28-.32A8.86,8.86,0,0,0,78.87,58c0-.35,0-.7.1-1.05A1.17,1.17,0,0,1,80.09,55.91Zm.08,16.45a12,12,0,0,1,5-5,12,12,0,0,1-5-5,11.92,11.92,0,0,1-5,5A12.12,12.12,0,0,1,80.17,72.36Z"/><path d="M71.17,82.7c0,.69-.43,1.11-1.23,1.25a7.51,7.51,0,0,0-1.78.46,3.7,3.7,0,0,0-2.07,3.16c-.09,1-.52,1.48-1.24,1.49s-1.21-.55-1.28-1.53A3.82,3.82,0,0,0,60.13,84a3.58,3.58,0,0,1-.73-.11,1.12,1.12,0,0,1-.9-1.21,1.14,1.14,0,0,1,1-1.17c.44-.08.9-.1,1.32-.22a3.8,3.8,0,0,0,2.71-3.56,1.25,1.25,0,0,1,1-1.31,1.14,1.14,0,0,1,1.37.64,1.6,1.6,0,0,1,.15.57,3.87,3.87,0,0,0,3.8,3.85C70.74,81.56,71.18,82,71.17,82.7Zm-6.34,1.15,1.1-1.19-1-1.15-1.18,1.13Z"/><path d="M40.51,54.61a1.22,1.22,0,0,1-1.22,1.24c-2.46.28-3.59,1.41-3.88,3.92a1.23,1.23,0,0,1-2.45.1c-.07-.37-.06-.75-.15-1.11a3.82,3.82,0,0,0-3.56-2.9c-.86-.06-1.41-.53-1.43-1.23s.53-1.21,1.44-1.28a3.85,3.85,0,0,0,3.65-3.59,3.82,3.82,0,0,1,.09-.59,1.22,1.22,0,0,1,2.4.19c.38,2.67,1.37,3.67,4,4A1.2,1.2,0,0,1,40.51,54.61Zm-6.26-1.14L33,54.57l1.24,1.22,1.14-1.19Z"/><rect class="cls-1" x="15.72" y="16.01" width="85.04" height="85.04" rx="14.17"/></svg>