<svg id="Layer_1" data-name="Layer 1" xmlns="http://www.w3.org/2000/svg" viewBox="0 0 116.22 116.22"><defs><style>.cls-1{fill:none;stroke:#000;stroke-miterlimit:10;stroke-width:6px;}</style></defs><rect class="cls-1" x="15.59" y="16.01" width="85.04" height="85.04" rx="14.17"/><path d="M91.3,61.51a7.58,7.58,0,0,1-3.53,1.93,38.6,38.6,0,0,1-11.9,1.47,34.86,34.86,0,0,1-11-1.59,11.75,11.75,0,0,1-2.37-1.14c-.94-.58-.94-1,0-1.54a14.57,14.57,0,0,1,2.64-1.2A35.25,35.25,0,0,1,76,58a39.45,39.45,0,0,1,11.34,1.34,17.54,17.54,0,0,1,2.63,1,7.51,7.51,0,0,1,1.31,1Z"/><path d="M91.3,77.46a9.74,9.74,0,0,1-4.89,2.33,42.91,42.91,0,0,1-13.32.94A29.11,29.11,0,0,1,65,79.25,12.41,12.41,0,0,1,62.63,78a1.44,1.44,0,0,1-.51-1c-.06-1.22,0-2.45,0-3.72,4.65,2,9.6,2.48,14.61,2.45s10-.52,14.59-2.68Z"/><path d="M91.3,69.16a7.09,7.09,0,0,1-1.21,1.18,14.82,14.82,0,0,1-5.25,1.76A44.51,44.51,0,0,1,67,71.85a29.84,29.84,0,0,1-4.24-1.53A1.3,1.3,0,0,1,62,68.89c.06-1.2,0-2.41,0-3.62,0,0,.11,0,.16,0a30.86,30.86,0,0,0,11.4,2.39,43.41,43.41,0,0,0,15-1.5c.94-.28,1.85-.68,2.78-1Z"/><path d="M39.21,77.88A14.3,14.3,0,1,1,53.56,63.63,14.3,14.3,0,0,1,39.21,77.88Zm5.43-19.35a5.21,5.21,0,0,0-3.25-4.39c-.47-.21-.69-.4-.69-1a1.41,1.41,0,0,0-1.42-1.39,1.39,1.39,0,0,0-1.4,1.4.81.81,0,0,1-.62.87A5.41,5.41,0,0,0,36,63.4a5.5,5.5,0,0,0,3.31,1.12,2.52,2.52,0,0,1,2.5,2.73,2.55,2.55,0,0,1-2.68,2.35,2.51,2.51,0,0,1-2.39-2.37c-.11-1.07-.67-1.64-1.57-1.58s-1.38.75-1.29,1.82a5,5,0,0,0,2.74,4.27c.9.46,1.42.88,1.31,2A1.28,1.28,0,0,0,39.18,75a1.39,1.39,0,0,0,1.46-1.11,4.44,4.44,0,0,0,.07-1.09.58.58,0,0,1,.44-.66,5.41,5.41,0,0,0-1.86-10.48A2.54,2.54,0,1,1,41.78,59a1.48,1.48,0,0,0,1.51,1.52C44.14,60.5,44.67,59.86,44.64,58.53Z"/><path d="M59.76,43.21a37.52,37.52,0,0,1-11.3-1.55,14.52,14.52,0,0,1-2.78-1.34c-.73-.45-.72-.85,0-1.31a12.15,12.15,0,0,1,2.49-1.2A36.23,36.23,0,0,1,60.25,36.2a35.75,35.75,0,0,1,11.16,1.59A13.64,13.64,0,0,1,74,39.05c.77.46.79.83,0,1.27a17.91,17.91,0,0,1-3.28,1.48A39.26,39.26,0,0,1,59.76,43.21Z"/><path d="M74.76,43.51c0,1.1,0,2.31,0,3.51a1.61,1.61,0,0,1-1,1.5,28.42,28.42,0,0,1-4.35,1.59,43.52,43.52,0,0,1-19.07,0,3.15,3.15,0,0,1-.75-.34c-1.23-.7-2.47-1.4-3.69-2.11-.18-.11-.44-.3-.44-.45,0-1.22,0-2.45,0-3.53A44.65,44.65,0,0,0,74.76,43.51Z"/><path d="M53.27,53.68c7.35.64,14.5.62,21.41-2.27V55c-1.54.14-3.09.23-4.62.43a23.16,23.16,0,0,0-8.24,2.27,5.57,5.57,0,0,0-1.39.94,1.67,1.67,0,0,1-1.4.46c-.93-.06-1.86-.05-2.78-.12a.7.7,0,0,1-.53-.32A17.75,17.75,0,0,0,53.27,53.68Z"/><path d="M52.7,74.58c.87-1.59,1.65-3,2.46-4.49a.65.65,0,0,1,.48-.29c1.12,0,2.24.11,3.44.17v5.16Z"/><path d="M59,67.08l-2.75-.15.26-5c.7,0,1.46,0,2.23,0,.09,0,.25.23.25.36C59,63.88,59,65.43,59,67.08Z"/></svg>