<svg id="Layer_1" data-name="Layer 1" xmlns="http://www.w3.org/2000/svg" viewBox="0 0 116.22 116.22"><path d="M99.32,67.78c-4.7,19.6-20.87,33.27-41.3,33.27A42.45,42.45,0,0,1,28.9,89.32l-7.14,7.14a3.53,3.53,0,0,1-6-2.49V69.16a3.57,3.57,0,0,1,3.55-3.54h24.8a3.57,3.57,0,0,1,3.54,3.54,3.49,3.49,0,0,1-1,2.49L39,79.24a28.23,28.23,0,0,0,43.4-5.87,44.49,44.49,0,0,0,2.94-6.48A1.71,1.71,0,0,1,87,65.62H97.61a1.79,1.79,0,0,1,1.77,1.77A.89.89,0,0,1,99.32,67.78Zm1.44-19.88a3.57,3.57,0,0,1-3.54,3.55H72.42a3.58,3.58,0,0,1-3.55-3.55,3.52,3.52,0,0,1,1.06-2.49l7.64-7.64A28.37,28.37,0,0,0,34.1,43.7a45.4,45.4,0,0,0-2.93,6.47,1.71,1.71,0,0,1-1.66,1.28h-11a1.79,1.79,0,0,1-1.77-1.78v-.38C21.48,29.63,37.81,16,58.24,16A43,43,0,0,1,87.53,27.75l7.2-7.14a3.49,3.49,0,0,1,2.49-1.05,3.56,3.56,0,0,1,3.54,3.54Z"/></svg>