<svg width="30" height="30" viewBox="0 0 30 30" fill="none" xmlns="http://www.w3.org/2000/svg">
<g id="resize-01 1">
<path id="Vector" d="M22.3514 4.13268H7.71533C5.69523 4.13268 4.05762 5.7703 4.05762 7.7904V22.4264C4.05762 24.4465 5.69523 26.0842 7.71533 26.0842H22.3514C24.3715 26.0842 26.0091 24.4465 26.0091 22.4264V7.7904C26.0091 5.7703 24.3715 4.13268 22.3514 4.13268Z" stroke="#999999" stroke-miterlimit="10"/>
<path id="Vector_2" d="M9.03466 16.4946V19.7961L13.5132 15.3072L14.8039 16.5978L10.2943 21.11H13.65V22.873H7.26904V16.4946H9.03466Z" fill="#999999"/>
<path id="Vector_3" d="M21.0428 13.7197V10.3975L16.5513 14.8864L15.2891 13.619L19.8038 9.1017H16.4171V7.34641H22.8007V13.7197H21.0428Z" fill="#999999"/>
</g>
</svg>
