<svg width="16" height="16" viewBox="0 0 16 16" fill="none" xmlns="http://www.w3.org/2000/svg">
<path d="M14.0854 9.05656C13.9157 8.88664 13.7141 8.75184 13.4923 8.65987C13.2704 8.5679 13.0326 8.52056 12.7925 8.52056C12.5523 8.52056 12.3145 8.5679 12.0926 8.65987C11.8708 8.75184 11.6692 8.88664 11.4995 9.05656L9.27528 11.6107L5.66463 7.3897C5.32134 7.04685 4.856 6.85428 4.37083 6.85428C3.88565 6.85428 3.42031 7.04685 3.07702 7.3897L0.5 10.3512V14.0377C0.500467 14.4257 0.654918 14.7976 0.929424 15.0718C1.20393 15.346 1.57604 15.5 1.96402 15.5H14.0377C14.4256 15.5 14.7975 15.3459 15.0717 15.0717C15.3459 14.7975 15.5 14.4256 15.5 14.0377V10.7111L14.0854 9.05656Z" fill="#999999"/>
<path d="M13.0006 0.5H2.99941C1.61902 0.5 0.5 1.61902 0.5 2.99941V13.0006C0.5 14.381 1.61902 15.5 2.99941 15.5H13.0006C14.381 15.5 15.5 14.381 15.5 13.0006V2.99941C15.5 1.61902 14.381 0.5 13.0006 0.5Z" stroke="#999999" stroke-miterlimit="10"/>
<path d="M9.75774 6.7406C10.9696 6.7406 11.952 5.7582 11.952 4.54634C11.952 3.33449 10.9696 2.35208 9.75774 2.35208C8.54588 2.35208 7.56348 3.33449 7.56348 4.54634C7.56348 5.7582 8.54588 6.7406 9.75774 6.7406Z" fill="#999999"/>
</svg>
