<svg id="Layer_1" data-name="Layer 1" xmlns="http://www.w3.org/2000/svg" viewBox="0 0 116.22 116.22"><defs><style>.cls-1{fill:none;stroke-width:6px;}.cls-1,.cls-2{stroke:#000;stroke-miterlimit:10;}.cls-2{stroke-width:2px;}</style></defs><rect class="cls-1" x="15.72" y="16.01" width="85.04" height="85.04" rx="14.17"/><path class="cls-2" d="M24.12,70.82c1.54-3.17,3.06-6.35,4.64-9.49Q34.63,49.63,40.51,38a3.57,3.57,0,0,1,2.88-2.19,3.4,3.4,0,0,1,3.5,2q2.36,4.63,4.67,9.27a1.47,1.47,0,0,0,.44.55v-.69c0-4.44,0-8.89,0-13.33a5.5,5.5,0,0,1,2.31-4.69,15.14,15.14,0,0,1,5.77-2.63,30.3,30.3,0,0,1,16.49.42,12.91,12.91,0,0,1,4.72,2.52,5.26,5.26,0,0,1,2,4.25c0,6.09,0,12.18,0,18.26a1.08,1.08,0,0,0,.68,1.12C86,54,88.12,55.18,90.25,56.31a3.65,3.65,0,0,1,2.12,3.54q0,9.69,0,19.39a3.59,3.59,0,0,1-2.19,3.55,167.72,167.72,0,0,0-15.31,8.33,3.54,3.54,0,0,1-3.84.06C66,88.4,60.89,85.61,55.78,82.89a3.87,3.87,0,0,1-2.33-4c0-.22,0-.44,0-.71-1.33.27-2.59.59-3.87.8a36.06,36.06,0,0,1-23.37-4,4.38,4.38,0,0,1-2.1-2.86Zm19.1,6.8a36.67,36.67,0,0,0,9.52-1.21c.53-.14.74-.34.73-.93,0-5.24,0-10.48,0-15.72a4,4,0,0,1,.72-2.38.88.88,0,0,0,.06-.74q-4.51-9-9-18a1.55,1.55,0,0,0-2.87,0q-8,15.9-16,31.8a2.1,2.1,0,0,0,1,3A34.21,34.21,0,0,0,43.22,77.62Zm12.18-18a5.27,5.27,0,0,0,0,.55c0,6.39,0,12.79,0,19.19a1.72,1.72,0,0,0,1,1.65c5,2.7,10,5.43,15,8.14l.65.31v-.72c0-6.47,0-12.93,0-19.39a1,1,0,0,0-.65-1.07q-7.53-4.06-15-8.17ZM73.85,89.49l.42-.18L89.51,81a1.77,1.77,0,0,0,1-1.74q0-9.49,0-19c0-.18,0-.36,0-.6-.25.13-.43.21-.6.31q-7.68,4.17-15.38,8.34a1,1,0,0,0-.6,1c0,6.46,0,12.92,0,19.38ZM54,36.54c0,.21,0,.31,0,.42V51.35a1,1,0,0,0,.06.46c.69,1.41,1.39,2.8,2.11,4.22l.77-.4c4.71-2.57,9.43-5.12,14.14-7.71a3.68,3.68,0,0,1,3.84,0c2,1.1,3.93,2.15,5.9,3.21.17.09.34.16.54.25V36.57c-4.11,3-8.79,3.69-13.62,3.7S58.11,39.53,54,36.54ZM89.39,58.05l-.32-.21L73.77,49.5a1.73,1.73,0,0,0-1.82.06l-14.77,8c-.23.12-.45.25-.73.42a4.09,4.09,0,0,0,.35.22q7.86,4.28,15.71,8.56a.89.89,0,0,0,1-.09l9.58-5.22ZM67.49,38.41a29.35,29.35,0,0,0,7.92-1,12.85,12.85,0,0,0,4.47-2.15c1.94-1.53,2-3.28,0-4.76A10.12,10.12,0,0,0,77.33,29a27.46,27.46,0,0,0-18.77-.26,9,9,0,0,0-3.65,2.13c-1.33,1.31-1.35,2.65,0,3.92a9.57,9.57,0,0,0,2.18,1.49A24.13,24.13,0,0,0,67.49,38.41Z"/></svg>