<svg width="25" height="25" viewBox="0 0 25 25" fill="none" xmlns="http://www.w3.org/2000/svg">
<g id="AI Replacement-01 1">
<path id="Vector" d="M14.7287 12.8119C14.6254 12.8872 14.5673 12.9431 14.4985 12.9818C13.39 13.5899 12.2807 14.1965 11.1708 14.8017C11.0278 14.8757 10.9114 14.9922 10.8374 15.1351C10.2394 16.2407 9.63848 17.3443 9.03474 18.4456C8.984 18.5153 8.92309 18.5769 8.85405 18.6285C8.78815 18.5724 8.72896 18.5088 8.67766 18.4392C8.05169 17.3163 7.43863 16.187 6.81696 15.0576C6.76163 14.9675 6.68379 14.8934 6.5911 14.8425C5.46823 14.2187 4.34105 13.6057 3.22679 12.984C3.15767 12.9343 3.09608 12.8749 3.04395 12.8076C3.09738 12.7401 3.15959 12.6801 3.22894 12.6291C4.33245 12.016 5.44887 11.4008 6.56098 10.7942C6.67622 10.7267 6.77187 10.6303 6.83847 10.5145C7.45369 9.40457 8.06029 8.286 8.67335 7.17389C8.72582 7.10636 8.78652 7.04566 8.85405 6.99319C8.92159 7.04738 8.98163 7.11032 9.03259 7.18034C9.64565 8.29246 10.2523 9.40887 10.8696 10.521C10.9322 10.6313 11.0227 10.7233 11.1321 10.7877C12.2485 11.4051 13.3713 12.016 14.4899 12.6291C14.5733 12.6849 14.653 12.746 14.7287 12.8119Z" fill="white"/>
<path id="Vector_2" d="M22.023 17.5615C21.9545 17.6168 21.8826 17.6678 21.8079 17.7143C21.0292 18.1445 20.2483 18.5747 19.4718 19.0049C19.3729 19.0609 19.2911 19.1427 19.2352 19.2415C18.8049 20.0181 18.3747 20.8011 17.9445 21.5776C17.9021 21.6388 17.8522 21.6944 17.7961 21.7433C17.7341 21.6935 17.6791 21.6357 17.6326 21.5712C17.2024 20.7946 16.7722 20.0116 16.3419 19.2372C16.2905 19.1444 16.2165 19.066 16.1268 19.0092C15.3438 18.579 14.5565 18.1488 13.7735 17.7186C13.7152 17.675 13.6631 17.6236 13.6187 17.5658C13.6659 17.5091 13.7201 17.4585 13.78 17.4153C14.563 16.985 15.3503 16.5548 16.1333 16.1246C16.2238 16.0745 16.2983 16 16.3484 15.9095C16.7786 15.1265 17.2088 14.3392 17.639 13.5562C17.682 13.4955 17.7318 13.4399 17.7875 13.3906C17.8495 13.4403 17.9045 13.4982 17.951 13.5627C18.3812 14.3392 18.8114 15.1222 19.2416 15.8987C19.2938 15.9876 19.3678 16.0617 19.4567 16.1138C20.2376 16.5441 21.0249 16.9743 21.81 17.4045C21.8845 17.4519 21.9557 17.5043 22.023 17.5615Z" fill="white"/>
<path id="Vector_3" d="M18.9104 6.49629C18.849 6.54639 18.7843 6.59238 18.7168 6.63396C18.179 6.93297 17.6413 7.22336 17.1013 7.52667C16.9964 7.58647 16.9095 7.6734 16.8497 7.77835C16.5464 8.31397 16.256 8.85389 15.9591 9.39597C15.919 9.45117 15.8728 9.50168 15.8214 9.54654C15.7695 9.50225 15.7232 9.45167 15.6838 9.39597C15.3826 8.85389 15.0901 8.30321 14.7846 7.76329C14.7254 7.66608 14.6425 7.58542 14.5437 7.52882C14.0038 7.21906 13.4552 6.92651 12.9067 6.62536C12.8558 6.58961 12.8096 6.54771 12.769 6.5006C12.809 6.44775 12.856 6.40069 12.9089 6.36077C13.4595 6.05532 14.0145 5.75847 14.5609 5.45086C14.6502 5.39922 14.7244 5.32504 14.776 5.23575C15.0836 4.68722 15.3826 4.13439 15.6881 3.58371C15.7279 3.5302 15.775 3.48242 15.8279 3.44174C15.8746 3.48277 15.9164 3.52895 15.9527 3.57941C16.2538 4.12364 16.5485 4.67217 16.854 5.21424C16.911 5.31285 16.9925 5.39509 17.0906 5.45301C17.6327 5.76062 18.1812 6.05317 18.7254 6.35432C18.7903 6.39728 18.8521 6.44472 18.9104 6.49629Z" fill="white"/>
</g>
</svg>
