<svg width="13" height="10" viewBox="0 0 13 10" fill="none" xmlns="http://www.w3.org/2000/svg">
<g id="checkmark 1" clip-path="url(#clip0_111_88)">
<path id="Vector" d="M11.89 2.34L6.22998 8L5.16998 9.06C5.02947 9.20069 4.83883 9.27982 4.63998 9.28C4.44157 9.27769 4.25171 9.19888 4.10999 9.06L3.04999 8L0.219971 5.17001C0.0810867 5.02829 0.00230401 4.83843 0 4.64001C0.000175052 4.44117 0.0792782 4.2505 0.219971 4.10999L1.28 3.04001C1.42272 2.90389 1.61277 2.82856 1.81 2.82999C1.90784 2.82821 2.00503 2.84588 2.09601 2.88193C2.18698 2.91797 2.26993 2.9717 2.34 3.04001L4.63998 5.35001L9.76999 0.220001C9.91051 0.0793087 10.1011 0.000175052 10.3 0C10.4984 0.00230401 10.6883 0.0811172 10.83 0.220001L11.89 1.28C12.0307 1.42052 12.1098 1.61115 12.11 1.81C12.1077 2.00841 12.0289 2.19828 11.89 2.34Z" fill="#2E8B57"/>
</g>
<defs>
<clipPath id="clip0_111_88">
<rect width="12.11" height="9.28" fill="white"/>
</clipPath>
</defs>
</svg>
