<svg width="30" height="30" viewBox="0 0 30 30" fill="none" xmlns="http://www.w3.org/2000/svg">
<g id="crop-01 1">
<path id="Vector" d="M22.4058 26.0867C21.8896 25.9138 21.7141 25.5498 21.7141 25.0181C21.7244 20.0878 21.7244 15.1575 21.7141 10.2272C21.7364 9.80116 21.5987 9.38221 21.3278 9.05263C21.057 8.72305 20.6727 8.50668 20.2505 8.44605C20.1162 8.42746 19.9806 8.42055 19.8452 8.4254H10.999C10.7755 8.44303 10.5538 8.37367 10.3802 8.23179C10.2066 8.08991 10.0944 7.88647 10.0672 7.66391C10.0534 7.54505 10.0648 7.42462 10.1006 7.31043C10.1363 7.19624 10.1957 7.09084 10.2748 7.00104C10.3538 6.91125 10.4509 6.83907 10.5597 6.78917C10.6684 6.73928 10.7865 6.71279 10.9061 6.71141C11.505 6.71141 12.1064 6.71141 12.713 6.71141H19.9743C20.7742 6.70233 21.5519 6.97438 22.1718 7.48009C22.7917 7.98581 23.2144 8.6931 23.3661 9.47858C23.4148 9.73375 23.4373 9.99323 23.4332 10.253C23.4332 14.0114 23.4332 17.7706 23.4332 21.5307V21.8069H24.1921C24.5122 21.8069 24.8349 21.8069 25.1549 21.8069C25.3738 21.8189 25.5797 21.9143 25.7303 22.0735C25.881 22.2326 25.9649 22.4435 25.9649 22.6626C25.9649 22.8818 25.881 23.0926 25.7303 23.2518C25.5797 23.4109 25.3738 23.5063 25.1549 23.5183C24.5922 23.5183 24.0295 23.5183 23.4358 23.5183V24.143C23.4358 24.4347 23.4203 24.729 23.4358 25.0207C23.4739 25.2525 23.4245 25.4903 23.2971 25.6878C23.1698 25.8853 22.9735 26.0284 22.7466 26.0893L22.4058 26.0867Z" fill="#999999"/>
<path id="Vector_2" d="M4.05518 7.39546C4.1192 7.17017 4.26356 6.97615 4.46096 6.8501C4.65836 6.72406 4.8951 6.67471 5.12642 6.71141C5.61687 6.73206 6.1099 6.71141 6.62874 6.71141V6.06092C6.62874 5.70212 6.62874 5.3459 6.62874 4.9871C6.64077 4.76828 6.73616 4.56238 6.89532 4.41172C7.05447 4.26107 7.2653 4.17712 7.48445 4.17712C7.7036 4.17712 7.91442 4.26107 8.07358 4.41172C8.23273 4.56238 8.32813 4.76828 8.34015 4.9871C8.34015 5.05937 8.34015 5.12907 8.34015 5.20134V19.9251C8.34015 21.0971 9.04743 21.7992 10.2245 21.7992H19.0784C19.1908 21.7909 19.3037 21.8048 19.4107 21.8401C19.5177 21.8754 19.6167 21.9315 19.702 22.0051C19.7873 22.0787 19.8573 22.1683 19.908 22.269C19.9587 22.3696 19.989 22.4793 19.9974 22.5916C20.0057 22.704 19.9917 22.8169 19.9564 22.9239C19.9211 23.0309 19.865 23.1299 19.7914 23.2152C19.7179 23.3006 19.6282 23.3706 19.5275 23.4212C19.4269 23.4719 19.3173 23.5023 19.2049 23.5106H19.0552C16.0677 23.5106 13.0803 23.5106 10.0929 23.5106C9.29515 23.5185 8.51993 23.2464 7.90208 22.7418C7.28424 22.2371 6.86288 21.5318 6.71134 20.7486C6.66238 20.4934 6.63989 20.2339 6.64423 19.9742C6.64423 16.2158 6.64423 12.4565 6.64423 8.69644V8.4125H6.12797C5.80014 8.4125 5.46973 8.39701 5.14191 8.4125C4.9101 8.45584 4.67045 8.4114 4.46959 8.28783C4.26873 8.16426 4.12101 7.97039 4.05518 7.74394V7.39546Z" fill="#999999"/>
</g>
</svg>
