<svg width="30" height="30" viewBox="0 0 30 30" fill="none" xmlns="http://www.w3.org/2000/svg">
<g id="delete-01 1">
<path id="Vector" d="M20.5703 26.0867H9.57653C9.55898 26.0747 9.53987 26.0652 9.51974 26.0583C9.08333 25.9928 8.683 25.7784 8.38662 25.4514C8.09023 25.1244 7.91602 24.7051 7.89352 24.2643C7.77994 23.0434 7.68701 21.8172 7.58634 20.5937L7.22754 16.1822C7.11912 14.8658 7.00985 13.5493 6.89971 12.2328C6.85583 11.6856 6.81195 11.1409 6.76807 10.5834H23.3917C23.3937 10.6066 23.3937 10.6299 23.3917 10.6531C23.2368 12.5374 23.0811 14.4226 22.9245 16.3087C22.7111 18.89 22.4977 21.4662 22.2843 24.0372C22.2783 24.5916 22.0635 25.1234 21.6829 25.5266C21.371 25.8126 20.9859 26.0065 20.5703 26.0867ZM12.4986 22.9066C12.4573 22.2277 12.4263 21.7088 12.3953 21.1874C12.2835 19.4218 12.1733 17.6553 12.0649 15.888C11.9926 14.7505 11.9212 13.6113 11.8507 12.4703C11.8483 12.3582 11.8152 12.249 11.7552 12.1543C11.6951 12.0597 11.6103 11.9833 11.5099 11.9334C11.4108 11.8828 11.3002 11.8591 11.189 11.8646C11.0779 11.8701 10.9701 11.9045 10.8764 11.9646C10.7827 12.0246 10.7063 12.1081 10.6549 12.2068C10.6035 12.3055 10.5788 12.4159 10.5832 12.5271C10.5987 13.0821 10.6452 13.6396 10.6788 14.1946L11.004 19.4089C11.0789 20.5705 11.1486 21.7321 11.2234 22.8911C11.2214 23.0622 11.2874 23.2272 11.4069 23.3496C11.5265 23.4721 11.6898 23.5421 11.861 23.5441C12.0321 23.5462 12.1971 23.4802 12.3196 23.3606C12.4421 23.241 12.512 23.0777 12.5141 22.9066H12.4986ZM17.6612 22.8033C17.6511 22.8914 17.6595 22.9806 17.6859 23.0653C17.7123 23.1499 17.756 23.2282 17.8143 23.295C17.8726 23.3618 17.9442 23.4157 18.0245 23.4532C18.1048 23.4908 18.1921 23.5112 18.2807 23.5132C18.6627 23.5286 18.9286 23.255 18.9519 22.811C18.9519 22.6045 18.9777 22.398 18.9906 22.1915C19.0835 20.7081 19.1756 19.2256 19.2668 17.7439C19.3726 16.0325 19.4836 14.3237 19.5869 12.6123C19.5996 12.5219 19.5931 12.4298 19.5678 12.342C19.5425 12.2543 19.4989 12.1729 19.4399 12.1032C19.3809 12.0335 19.3079 11.977 19.2255 11.9376C19.1432 11.8981 19.0535 11.8764 18.9622 11.874C18.871 11.8735 18.7808 11.8917 18.6969 11.9274C18.613 11.9631 18.5373 12.0155 18.4745 12.0815C18.4116 12.1475 18.3629 12.2257 18.3314 12.3112C18.2998 12.3967 18.2861 12.4877 18.291 12.5787C18.2033 14.0243 18.1172 15.4707 18.0329 16.9179C17.8987 18.8436 17.7774 20.7976 17.6509 22.8033H17.6612ZM15.7175 17.6871V12.6717C15.7175 12.1554 15.48 11.8585 15.0721 11.8585C14.6643 11.8585 14.4294 12.158 14.4294 12.6717V22.7C14.4255 22.7714 14.4255 22.8429 14.4294 22.9143C14.4363 23.0403 14.4811 23.1612 14.5581 23.2612C14.635 23.3612 14.7405 23.4355 14.8605 23.4744C14.9621 23.5106 15.0712 23.5206 15.1777 23.5033C15.2842 23.486 15.3846 23.4421 15.4695 23.3757C15.5545 23.3093 15.6213 23.2224 15.6638 23.1233C15.7062 23.0241 15.7229 22.9158 15.7123 22.8085C15.7175 21.1014 15.7192 19.3942 15.7175 17.6871Z" fill="#999999"/>
<path id="Vector_2" d="M10.532 6.71141C10.54 6.33665 10.5762 5.96302 10.6404 5.5937C10.7357 5.17408 10.9736 4.80047 11.3133 4.53644C11.6531 4.27242 12.0739 4.1343 12.5041 4.14559C14.2164 4.1301 15.9269 4.1301 17.6358 4.14559C17.8924 4.14246 18.1471 4.19076 18.3849 4.28763C18.6226 4.38449 18.8385 4.52797 19.0199 4.7096C19.2013 4.89124 19.3445 5.10734 19.441 5.34519C19.5376 5.58304 19.5855 5.83781 19.5821 6.09448C19.5821 6.29324 19.5821 6.492 19.5821 6.71141H19.8402C21.0224 6.71141 22.2021 6.71141 23.3843 6.71141C23.6764 6.69624 23.9649 6.78068 24.2027 6.95092C24.4404 7.12115 24.6133 7.36708 24.6931 7.64843C24.7415 7.81705 24.7545 7.99386 24.7313 8.16775C24.7081 8.34165 24.6492 8.50887 24.5583 8.65891C24.4674 8.80896 24.3465 8.93859 24.2031 9.03967C24.0597 9.14074 23.8969 9.21108 23.7251 9.24626C23.5986 9.27259 23.4696 9.28471 23.3404 9.2824H6.82006C6.1644 9.2824 5.67396 8.96748 5.49326 8.43315C5.42309 8.23539 5.40218 8.02351 5.43237 7.81586C5.46255 7.6082 5.54291 7.41104 5.66648 7.24145C5.79005 7.07185 5.95311 6.93495 6.14152 6.84259C6.32994 6.75023 6.53804 6.7052 6.74778 6.71141C7.93518 6.71141 9.12259 6.71141 10.31 6.71141H10.532ZM18.294 6.71141V6.27001C18.294 5.64533 18.0772 5.4285 17.4628 5.4285H14.1381C13.6012 5.4285 13.0668 5.4285 12.5299 5.4285C12.3688 5.42175 12.2113 5.47678 12.0894 5.58233C11.9675 5.68788 11.8906 5.83599 11.8743 5.99639C11.8536 6.22613 11.8743 6.46102 11.8743 6.70367L18.294 6.71141Z" fill="#999999"/>
</g>
</svg>
