<svg width="13" height="11" viewBox="0 0 13 11" fill="none" xmlns="http://www.w3.org/2000/svg">
<path d="M13 4.95245C13 5.05401 13 5.15558 13 5.25714C12.9411 5.40517 12.8908 5.55726 12.8218 5.70046C12.6308 6.09579 12.4323 6.48757 12.2365 6.88061C11.7546 7.84825 11.2704 8.81462 10.793 9.78454C10.6915 9.99071 10.5478 10.0958 10.3147 10.0834C10.1588 10.075 10.0019 10.0819 9.84547 10.0819C6.87273 10.0819 3.89975 10.0831 0.927012 10.0783C0.770605 10.0781 0.605566 10.0473 0.459824 9.99122C0.205156 9.89296 0.0804883 9.67028 0 9.4212C0 6.50128 0 3.58136 0 0.661435C0.197031 0.145244 0.406504 0.00127888 0.960527 0.00127888C1.90811 0.00127888 2.85543 0.00381794 3.80301 9.35036e-06C4.14248 -0.00126018 4.40527 0.126709 4.60002 0.407275C4.83615 0.747763 5.08346 1.08013 5.3201 1.42036C5.37418 1.49831 5.43029 1.52726 5.52627 1.52726C7.04488 1.52395 8.56324 1.52421 10.0819 1.52522C10.6194 1.52548 10.9449 1.85073 10.9454 2.38444C10.9459 2.90038 10.9456 3.41657 10.9456 3.93251C10.9456 3.97669 10.9456 4.02087 10.9456 4.07368C11.2628 4.07368 11.5586 4.07419 11.8544 4.07343C12.2205 4.07267 12.5445 4.18159 12.7674 4.48196C12.87 4.62009 12.9241 4.79452 13 4.95245ZM0.982363 9.31456C1.02146 9.3171 1.04203 9.31964 1.0626 9.31964C4.06707 9.31989 7.07154 9.31938 10.076 9.32167C10.1524 9.32167 10.186 9.29247 10.2174 9.22874C10.4447 8.76612 10.6755 8.30503 10.9053 7.84343C11.3326 6.98472 11.7607 6.12651 12.187 5.26729C12.2931 5.05351 12.1994 4.87958 11.9633 4.84454C11.9217 4.83845 11.879 4.83565 11.8369 4.83565C9.01443 4.83515 6.19176 4.83591 3.36934 4.83388C3.16367 4.83362 3.03291 4.91386 2.9448 5.10581C2.54668 5.97366 2.13891 6.83694 1.73469 7.70226C1.48662 8.23368 1.23855 8.76536 0.982363 9.31456ZM10.1776 2.28644C10.1179 2.28644 10.0684 2.28644 10.0186 2.28644C8.50789 2.28644 6.9974 2.28466 5.48666 2.28796C5.15963 2.28872 4.90978 2.16329 4.72291 1.8944C4.48398 1.55061 4.23516 1.21368 3.99521 0.870654C3.94113 0.793466 3.88375 0.760712 3.78727 0.760966C2.82674 0.764521 1.86621 0.762998 0.905684 0.763505C0.860996 0.763505 0.816055 0.767568 0.772891 0.769853C0.772891 3.16419 0.772891 5.54431 0.772891 7.95997C0.806406 7.88862 0.82418 7.85054 0.842207 7.81245C1.31473 6.80216 1.78674 5.79136 2.26053 4.78183C2.30344 4.69042 2.3499 4.59825 2.40982 4.51776C2.6551 4.18743 2.99787 4.07241 3.39701 4.07267C5.60168 4.07495 7.80635 4.07368 10.011 4.07368C10.0646 4.07368 10.1182 4.07368 10.1776 4.07368C10.1776 3.47522 10.1776 2.89276 10.1776 2.28644Z" fill="#999999"/>
</svg>
