<svg width="14" height="12" viewBox="0 0 14 12" fill="none" xmlns="http://www.w3.org/2000/svg">
<path d="M4.63179 5.97149C5.29375 5.41068 6.05686 5.18676 6.91011 5.20797C7.40443 5.22021 7.8955 5.21613 8.36903 5.38988C8.7361 5.52447 9.06688 5.71739 9.37155 5.97231C9.68968 5.67661 10.0486 5.45391 10.4654 5.32788C11.9717 4.87271 13.535 5.80957 13.8397 7.35373C13.8927 7.62292 13.9371 7.89374 13.9877 8.16334C14.0277 8.37543 13.9702 8.55326 13.814 8.70335C13.4759 9.02841 13.0574 9.19197 12.6132 9.29801C12.0353 9.43587 11.4476 9.46605 10.8558 9.43546C10.786 9.43179 10.7163 9.42853 10.6322 9.42445C10.6669 9.67651 10.6942 9.91225 10.7326 10.1464C10.773 10.3927 10.6755 10.5709 10.4785 10.7064C10.0984 10.9682 9.66684 11.1008 9.22268 11.1938C8.13858 11.4201 7.04307 11.4372 5.94307 11.3565C5.27132 11.3071 4.60855 11.2093 3.98248 10.9474C3.7969 10.8699 3.62112 10.7626 3.45512 10.6476C3.29238 10.5351 3.23528 10.3642 3.26587 10.1643C3.30298 9.92408 3.33357 9.68303 3.36906 9.42404C3.27892 9.42894 3.19898 9.43505 3.11945 9.4375C2.31596 9.4636 1.51941 9.42649 0.774653 9.0847C0.557263 8.98477 0.362714 8.82815 0.171835 8.67929C0.0478451 8.58262 -0.0235306 8.43416 0.007059 8.27224C0.0910784 7.82889 0.136759 7.36964 0.287667 6.94914C0.916997 5.19655 3.1117 4.64675 4.51474 5.87034C4.55308 5.90419 4.59142 5.93682 4.63179 5.97149ZM6.9978 10.4245C7.88612 10.4698 8.75078 10.3503 9.59383 10.0636C9.70559 10.0256 9.72843 9.97465 9.71211 9.86576C9.61953 9.25315 9.53224 8.63972 9.44496 8.02671C9.31975 7.14572 8.68226 6.42095 7.80536 6.25618C7.38159 6.17664 6.93458 6.17868 6.50102 6.20152C5.56049 6.25128 4.75619 6.96463 4.58938 7.88803C4.46865 8.55733 4.3883 9.23357 4.28593 9.90654C4.27165 9.99913 4.3104 10.0281 4.38912 10.0554C5.23461 10.3499 6.10458 10.4686 6.9978 10.4245ZM10.4936 8.42396C10.6461 8.43742 10.7925 8.4517 10.939 8.4623C11.5907 8.5088 12.2282 8.46026 12.8351 8.18822C12.9407 8.14091 13.0015 8.09808 12.9607 7.96634C12.9236 7.84602 12.9171 7.71632 12.8922 7.59193C12.7637 6.95281 12.402 6.50008 11.7845 6.28595C11.1739 6.07427 10.6139 6.19581 10.1171 6.61306C10.0302 6.68606 10.0156 6.74113 10.0661 6.8541C10.1816 7.11228 10.2847 7.37902 10.3594 7.65107C10.4263 7.89537 10.4483 8.1507 10.4936 8.42396ZM3.51222 8.40479C3.51589 8.3897 3.51752 8.38481 3.51793 8.37991C3.58889 7.82971 3.6721 7.28317 3.95515 6.79007C3.9731 6.75866 3.93313 6.66975 3.8952 6.63427C3.19816 5.9825 2.07369 6.06815 1.46679 6.80638C1.15192 7.18937 1.09564 7.65107 1.02386 8.10991C1.71069 8.50227 2.66631 8.54673 3.51222 8.40479Z" fill="#999999"/>
<path d="M7.00039 4.88335C5.64222 4.87682 4.55486 3.78579 4.56057 2.43455C4.56628 1.08616 5.66873 -0.00528297 7.01916 1.92371e-05C8.36265 0.00532144 9.45082 1.11307 9.4443 2.4684C9.43777 3.79966 8.33491 4.88947 7.00039 4.88335ZM6.99428 3.9053C7.79939 3.9106 8.45972 3.26577 8.46706 2.46718C8.47481 1.64982 7.82957 0.990308 7.00937 0.976848C6.21281 0.963797 5.53984 1.63065 5.53658 2.43577C5.53413 3.24742 6.18141 3.89999 6.99428 3.9053Z" fill="#999999"/>
<path d="M11.2208 4.88292C10.2178 4.87191 9.43065 4.06312 9.44452 3.05815C9.45798 2.08132 10.2737 1.29496 11.2636 1.30434C12.2482 1.31372 13.0374 2.13393 13.0223 3.13156C13.0072 4.10799 12.1988 4.89394 11.2208 4.88292ZM11.235 3.90487C11.6833 3.90446 12.0422 3.55085 12.045 3.10587C12.0483 2.65192 11.6886 2.2828 11.2416 2.28199C10.79 2.28076 10.4234 2.64295 10.4218 3.09159C10.4201 3.5435 10.7819 3.90487 11.235 3.90487Z" fill="#999999"/>
<path d="M2.76123 4.88332C1.76278 4.87638 0.974386 4.07861 0.980504 3.08098C0.986622 2.08946 1.79337 1.2974 2.78978 1.30474C3.77517 1.31167 4.56805 2.1278 4.55867 3.12462C4.5497 4.09492 3.73724 4.88984 2.76123 4.88332ZM2.76204 3.90486C3.21477 3.9073 3.58225 3.54594 3.58225 3.09811C3.58225 2.65435 3.22252 2.28687 2.78284 2.28238C2.32848 2.27749 1.96345 2.63355 1.95896 3.08506C1.95448 3.54227 2.30728 3.902 2.76204 3.90486Z" fill="#999999"/>
</svg>
