<svg id="Layer_1" data-name="Layer 1" xmlns="http://www.w3.org/2000/svg" viewBox="0 0 116.22 116.22"><defs><style>.cls-1{fill:none;stroke:#000;stroke-miterlimit:10;stroke-width:6px;}</style></defs><path d="M33.33,79.16a1.73,1.73,0,0,1-1.73-2.34c1.23-3,2.53-6,3.82-9A2.75,2.75,0,0,1,36,67l25.69-25.7c1.11-1.11,2-1.11,3.09,0q2.3,2.3,4.58,4.6a1.82,1.82,0,0,1,0,3Q56.53,61.75,43.67,74.58a3.1,3.1,0,0,1-1,.69c-2.9,1.26-5.82,2.5-8.73,3.73A3.77,3.77,0,0,1,33.33,79.16Z"/><path d="M79.21,25.35a3.65,3.65,0,0,1,2.63,1c.82.79,1.62,1.58,2.4,2.4a3.7,3.7,0,0,1,0,5.26c-2.69,2.75-5.43,5.45-8.15,8.16a1.72,1.72,0,0,1-2.67,0c-1.66-1.64-3.31-3.28-5-4.94a1.71,1.71,0,0,1,0-2.62q4.1-4.13,8.21-8.21A3.59,3.59,0,0,1,79.21,25.35Z"/><path d="M41.46,91.71a9.9,9.9,0,0,1-10.24-8,1.37,1.37,0,1,1,2.61-.82c.2.54.36,1.09.58,1.62A6.87,6.87,0,0,0,40.91,89,20,20,0,0,0,49.48,87a51.47,51.47,0,0,0,9.79-5.63,41.5,41.5,0,0,1,10.51-5.75,15.22,15.22,0,0,1,6.71-1A7.22,7.22,0,0,1,83,79.81a25.91,25.91,0,0,1,.87,4.58,1.35,1.35,0,0,1-1.29,1.52,1.39,1.39,0,0,1-1.43-1.32,26.83,26.83,0,0,0-.48-3.13c-.82-3-3-4.47-6.18-4.11a21.8,21.8,0,0,0-8.73,3.18c-2.57,1.54-5,3.28-7.54,4.91a40.79,40.79,0,0,1-11.4,5.43A34.1,34.1,0,0,1,41.46,91.71Z"/><rect class="cls-1" x="15.72" y="16.01" width="85.04" height="85.04" rx="14.17"/></svg>