<svg id="Layer_1" data-name="Layer 1" xmlns="http://www.w3.org/2000/svg" viewBox="0 0 116.22 116.22"><defs><style>.cls-1{fill:none;stroke:#000;stroke-miterlimit:10;stroke-width:6px;}</style></defs><rect class="cls-1" x="15.72" y="16.01" width="85.04" height="85.04" rx="14.17"/><path d="M81.75,88.65H63.84a.84.84,0,0,0-.91.58,5.11,5.11,0,0,1-9.4,0c-.16-.34-.28-.55-.72-.54H35.11l-.37,0V92c0,1.29-.53,1.81-1.84,1.81H24.82C23.51,93.79,23,93.27,23,92c0-2.72,0-5.43,0-8.15,0-1.25.53-1.77,1.79-1.78.59,0,1.18,0,1.88,0v-.72c0-5.73,0-11.46,0-17.19a.84.84,0,0,0-.59-.91A4.86,4.86,0,0,1,23,58.54a4.92,4.92,0,0,1,3-4.7c.33-.16.62-.23.61-.74,0-5.9,0-11.8,0-17.7,0-.1,0-.19,0-.37H24.73C23.56,35,23,34.48,23,33.34q0-4.2,0-8.38a1.49,1.49,0,0,1,1.67-1.68c2.81,0,5.63,0,8.44,0a1.49,1.49,0,0,1,1.64,1.65v2h.72c5.73,0,11.46,0,17.18,0a.83.83,0,0,0,.91-.59,4.87,4.87,0,0,1,4.68-3.07,4.93,4.93,0,0,1,4.71,3.05c.16.33.23.62.74.61,5.9,0,11.8,0,17.7,0l.37,0c0-.66,0-1.31,0-2a1.49,1.49,0,0,1,1.69-1.66q4.19,0,8.37,0a1.49,1.49,0,0,1,1.69,1.66c0,2.82,0,5.63,0,8.45A1.49,1.49,0,0,1,91.85,35h-2v.72q0,8.59,0,17.18a.81.81,0,0,0,.59.91,5.12,5.12,0,0,1,0,9.41c-.34.15-.55.27-.55.72q0,8.85,0,17.7c0,.09,0,.18,0,.37.66,0,1.31,0,2,0a1.5,1.5,0,0,1,1.67,1.69V92.1a1.51,1.51,0,0,1-1.67,1.69H83.38a1.48,1.48,0,0,1-1.63-1.65C81.74,91,81.75,89.89,81.75,88.65Zm-47-3,.43,0c5.88,0,11.75,0,17.63,0,.49,0,.58-.26.74-.6a4.94,4.94,0,0,1,4.7-3.06,4.83,4.83,0,0,1,4.68,3.06.88.88,0,0,0,1,.6H81c.23,0,.47,0,.74,0V83.92c0-1.39.49-1.88,1.91-1.88h3.17a2.45,2.45,0,0,0,0-.25c0-6,0-11.9,0-17.84,0-.46-.24-.56-.56-.71a5.12,5.12,0,0,1,0-9.4.84.84,0,0,0,.57-.93c0-5.73,0-11.45,0-17.18v-.61a.84.84,0,0,0-.21-.08H83.52c-1.24,0-1.77-.54-1.77-1.8,0-1.1,0-2.19,0-3.31l-.43,0c-5.88,0-11.75,0-17.63,0-.49,0-.59.26-.75.6a4.91,4.91,0,0,1-4.69,3.07,4.84,4.84,0,0,1-4.68-3.06.89.89,0,0,0-1-.6H35.48l-.74,0v3.22c0,1.4-.5,1.89-1.91,1.89h-3.2c0,.2,0,.3,0,.4q0,8.81,0,17.62c0,.46.19.61.56.78a5.11,5.11,0,0,1,.07,9.37.91.91,0,0,0-.63,1q0,8.52,0,17V82c1.17,0,2.27,0,3.36,0,1.25,0,1.77.53,1.78,1.8ZM26,26.24v5.81h5.77V26.24ZM84.71,32h5.81V26.26H84.71ZM26,85v5.78h5.78V85ZM84.72,90.8H90.5V85H84.72ZM58.21,26.22a2.2,2.2,0,1,0,2.23,2.14A2.23,2.23,0,0,0,58.21,26.22ZM28.13,56.33a2.2,2.2,0,1,0,2.2,2.19A2.23,2.23,0,0,0,28.13,56.33Zm62.43,2.21a2.2,2.2,0,1,0-2.2,2.19A2.24,2.24,0,0,0,90.56,58.54ZM60.44,87.17a2.2,2.2,0,1,0-2.18,2.21A2.22,2.22,0,0,0,60.44,87.17Z"/><path d="M58.21,77.63H39.63c-1.49,0-2-.47-2-2V40c0-1.55.45-2,2-2H76.78c1.6,0,2,.44,2,2.06V75.56c0,1.65-.43,2.07-2.1,2.07ZM75.83,41H40.65V64.57L44.3,60,51,51.67c1-1.21,1.88-1.2,2.86,0L54,52l4.2,5.25c.25-.29.46-.53.65-.77l3.75-4.71c1-1.3,1.93-1.31,3,0l6.63,8.32,3.61,4.51ZM40.65,74.64H75.81V70.32H40.65Zm11.72-20L42.23,67.31H62.47ZM74.29,67.35,64.12,54.6l-4,5L64.42,65c.64.8,1.16,1.89,2,2.28s2,.11,3,.12Z"/></svg>