<svg width="16" height="16" viewBox="0 0 16 16" fill="none" xmlns="http://www.w3.org/2000/svg">
<g id="instagram 1" clip-path="url(#clip0_137_52)">
<path id="Vector" d="M14.2429 11.0935C14.2662 12.205 13.8526 13.2812 13.0911 14.0912C12.278 14.8477 11.2038 15.2604 10.0934 15.243C9.10801 15.243 8.13654 15.243 7.15118 15.243C6.16583 15.243 5.18046 15.243 4.19511 15.243C3.08839 15.2626 2.01778 14.8493 1.21129 14.0912C0.830393 13.6926 0.532408 13.2224 0.33467 12.7078C0.136933 12.1932 0.043356 11.6445 0.0593755 11.0935C0.0593755 10.1081 0.0593755 9.13664 0.0593755 8.15129C0.0593755 7.16593 0.0593755 6.18057 0.0593755 5.19521C0.0452032 4.64648 0.139693 4.10036 0.337381 3.58828C0.535069 3.07619 0.832076 2.60824 1.21129 2.21138C2.01778 1.45323 3.08839 1.03994 4.19511 1.0595C5.18046 1.0595 6.16583 1.0595 7.15118 1.0595C8.13654 1.0595 9.10801 1.0595 10.0934 1.0595C11.2038 1.04216 12.278 1.45489 13.0911 2.21138C13.8492 3.01786 14.2625 4.0885 14.2429 5.19521C14.2429 6.18057 14.2429 7.16593 14.2429 8.15129C14.2429 9.13664 14.2985 10.1081 14.2429 11.0935ZM2.93218 2.5861C2.62399 2.69995 2.3445 2.87997 2.11337 3.11348C1.88304 3.34993 1.69943 3.62772 1.57214 3.93229C1.20209 6.72813 1.20209 9.56055 1.57214 12.3564C1.69279 12.6645 1.87722 12.9435 2.11337 13.1752C2.3437 13.413 2.62313 13.5977 2.93218 13.7165C5.72673 14.1057 8.56174 14.1057 11.3563 13.7165C11.6706 13.5929 11.956 13.406 12.1948 13.1672C12.4336 12.9284 12.6206 12.6429 12.7441 12.3286C13.1334 9.53409 13.1334 6.69907 12.7441 3.90453C12.622 3.59723 12.4377 3.31847 12.2028 3.08571C11.9741 2.84925 11.6939 2.66876 11.384 2.55833C8.58949 2.16909 5.75451 2.16909 2.95997 2.55833L2.93218 2.5861ZM7.09566 11.8151C6.37101 11.8151 5.66264 11.6002 5.06013 11.1977C4.45761 10.7951 3.98803 10.2229 3.71072 9.55338C3.43341 8.8839 3.36084 8.14721 3.50221 7.43649C3.64358 6.72578 3.99252 6.07293 4.50492 5.56053C5.01732 5.04813 5.67015 4.69919 6.38086 4.55782C7.09158 4.41645 7.82827 4.489 8.49775 4.7663C9.16724 5.04361 9.73948 5.51324 10.1421 6.11576C10.5447 6.71828 10.7595 7.42664 10.7595 8.15129C10.7669 8.63245 10.6794 9.11033 10.502 9.55766C10.3246 10.005 10.0609 10.413 9.72578 10.7584C9.3907 11.1038 8.99088 11.3798 8.54913 11.5706C8.10737 11.7615 7.63234 11.8634 7.15118 11.8706L7.09566 11.8151ZM7.09566 5.76423C6.62296 5.76148 6.1601 5.89912 5.76573 6.15974C5.37136 6.42036 5.06322 6.79221 4.88042 7.22814C4.69762 7.66407 4.64839 8.14445 4.73892 8.6084C4.82945 9.07236 5.05568 9.49898 5.38896 9.83421C5.72223 10.1694 6.14755 10.3982 6.61097 10.4914C7.07439 10.5846 7.55507 10.5382 7.99206 10.3579C8.42905 10.1777 8.80267 9.87173 9.06558 9.47888C9.32849 9.08604 9.46882 8.62399 9.46883 8.15129C9.46909 7.53004 9.22716 6.93317 8.7944 6.48745C8.36163 6.04173 7.77216 5.78229 7.15118 5.76423H7.09566ZM10.8983 5.19521C10.786 5.19523 10.6747 5.17287 10.5711 5.12946C10.4675 5.08605 10.3735 5.02245 10.2947 4.94237C10.2159 4.86228 10.1538 4.7673 10.1121 4.66298C10.0704 4.55867 10.0499 4.4471 10.0517 4.33477C10.0517 4.11024 10.1409 3.89491 10.2997 3.73615C10.4585 3.57739 10.6738 3.4882 10.8983 3.4882C11.0107 3.48635 11.1222 3.50687 11.2265 3.54859C11.3308 3.59031 11.4258 3.65238 11.5059 3.73117C11.586 3.80997 11.6496 3.90392 11.693 4.00755C11.7364 4.11118 11.7588 4.22242 11.7588 4.33477C11.7592 4.55367 11.6762 4.7645 11.5267 4.92437C11.3771 5.08423 11.1723 5.18109 10.9538 5.19521H10.8983Z" fill="white"/>
</g>
<defs>
<clipPath id="clip0_137_52">
<rect width="15.29" height="15.29" fill="white"/>
</clipPath>
</defs>
</svg>
