<svg width="25" height="17" viewBox="0 0 25 17" fill="none" xmlns="http://www.w3.org/2000/svg">
<g id="pricing-01 1" clip-path="url(#clip0_212_22)">
<path id="Vector" d="M25.0467 9.63711C24.676 9.99583 24.2152 10.2477 23.7132 10.3662C22.2527 10.7844 20.7359 10.9717 19.2176 10.9216C17.8092 10.9449 16.4062 10.7421 15.0621 10.3209C14.7484 10.2113 14.4481 10.0668 14.1667 9.89022C13.8116 9.67111 13.8116 9.51244 14.1667 9.30844C14.4833 9.12454 14.8174 8.97268 15.1641 8.85511C16.4949 8.46108 17.8792 8.27753 19.2667 8.31111C20.7117 8.2712 22.1548 8.44172 23.5507 8.81733C23.8915 8.91645 24.2237 9.04278 24.5443 9.19511C24.7226 9.3025 24.8886 9.42919 25.0392 9.57289L25.0467 9.63711Z" fill="#2E8B57"/>
<path id="Vector_2" d="M25.0468 15.6627C24.5266 16.1248 23.8861 16.43 23.1995 16.5429C21.551 16.9231 19.8531 17.0429 18.1675 16.898C17.1274 16.8572 16.0984 16.6689 15.1113 16.3389C14.7966 16.2142 14.4965 16.0559 14.2159 15.8667C14.1602 15.8198 14.1144 15.7622 14.0813 15.6973C14.0482 15.6324 14.0284 15.5615 14.0233 15.4889C14.0006 15.028 14.0233 14.5633 14.0233 14.0835C15.7799 14.8391 17.6499 15.0204 19.5426 15.0091C21.4353 14.9978 23.3204 14.8127 25.0544 13.9967L25.0468 15.6627Z" fill="#2E8B57"/>
<path id="Vector_3" d="M25.0464 12.5271C24.9124 12.6934 24.7589 12.843 24.5893 12.9729C23.9758 13.3171 23.303 13.5427 22.606 13.6378C20.3761 14.0615 18.0835 14.0294 15.8664 13.5433C15.3187 13.3913 14.7832 13.1981 14.2646 12.9653C14.1627 12.921 14.0788 12.8435 14.0267 12.7454C13.9745 12.6473 13.9572 12.5344 13.9775 12.4251C14.0002 11.9718 13.9775 11.5147 13.9775 11.0575C13.9775 11.0575 14.0191 11.0575 14.038 11.0575C15.4032 11.6292 16.8648 11.9356 18.3446 11.9604C20.2521 12.1035 22.1699 11.9117 24.0113 11.3938C24.3664 11.288 24.7102 11.1369 25.0615 11.016L25.0464 12.5271Z" fill="#2E8B57"/>
<path id="Vector_4" d="M5.36817 15.8213C4.29972 15.8176 3.25637 15.4971 2.37007 14.9004C1.48376 14.3037 0.794304 13.4576 0.388881 12.469C-0.0165423 11.4805 -0.119723 10.3939 0.0923868 9.34669C0.304497 8.2995 0.822371 7.33873 1.58052 6.58586C2.33867 5.833 3.30304 5.32185 4.35169 5.11707C5.40034 4.91229 6.48616 5.02307 7.47185 5.43539C8.45754 5.84772 9.29883 6.54308 9.88932 7.43353C10.4798 8.32399 10.793 9.36955 10.7893 10.438C10.7868 11.1474 10.6446 11.8494 10.3708 12.5039C10.0971 13.1584 9.69705 13.7525 9.19365 14.2524C8.69026 14.7523 8.09333 15.1482 7.43695 15.4174C6.78057 15.6865 6.0776 15.8238 5.36817 15.8213ZM7.4195 8.51133C7.38838 8.14835 7.25714 7.80112 7.04037 7.50832C6.8236 7.21551 6.52981 6.98861 6.19172 6.85289C6.01416 6.77355 5.93105 6.70178 5.93105 6.47511C5.92906 6.33449 5.87155 6.20037 5.77105 6.102C5.67056 6.00363 5.53523 5.94899 5.39461 5.95C5.32501 5.9495 5.25601 5.96283 5.19162 5.98923C5.12722 6.01564 5.06872 6.05457 5.01951 6.10379C4.9703 6.153 4.93136 6.2115 4.90496 6.2759C4.87856 6.34029 4.86522 6.40929 4.86572 6.47889C4.8732 6.55276 4.85357 6.62684 4.81047 6.68731C4.76738 6.74778 4.70377 6.79052 4.6315 6.80755C4.29165 6.94033 3.99354 7.16166 3.76813 7.44857C3.54272 7.73548 3.39822 8.0775 3.34965 8.43911C3.30107 8.80073 3.35019 9.16876 3.49189 9.50498C3.6336 9.8412 3.86274 10.1334 4.1555 10.3511C4.51524 10.6243 4.95422 10.7729 5.40594 10.7742C5.53729 10.7748 5.6671 10.8026 5.78719 10.8558C5.90729 10.9089 6.01508 10.9864 6.10379 11.0833C6.1925 11.1801 6.2602 11.2943 6.30264 11.4186C6.34508 11.5429 6.36133 11.6747 6.35039 11.8056C6.33102 12.0565 6.21424 12.2898 6.02504 12.4557C5.83583 12.6216 5.58922 12.7069 5.33794 12.6933C5.10327 12.6825 4.881 12.5848 4.71419 12.4194C4.54737 12.254 4.44791 12.0326 4.43506 11.798C4.3935 11.3938 4.18194 11.1784 3.84194 11.2011C3.50194 11.2238 3.32061 11.4844 3.35461 11.8887C3.36755 12.2254 3.47036 12.5526 3.65237 12.8363C3.83438 13.1199 4.08897 13.3497 4.38972 13.5018C4.72972 13.6756 4.92617 13.8342 4.88461 14.2573C4.88653 14.3823 4.93678 14.5017 5.02482 14.5905C5.11287 14.6792 5.23186 14.7304 5.35683 14.7333C5.484 14.7423 5.6101 14.7047 5.71158 14.6275C5.81307 14.5504 5.88302 14.4389 5.90839 14.314C5.93412 14.1784 5.943 14.04 5.93483 13.9022C5.92569 13.8473 5.93779 13.791 5.96866 13.7447C5.99953 13.6984 6.04686 13.6656 6.10105 13.6529C6.54932 13.486 6.92486 13.1672 7.16227 12.7519C7.39968 12.3367 7.48393 11.8513 7.40034 11.3804C7.31676 10.9094 7.07063 10.4827 6.70482 10.1745C6.33902 9.86632 5.8767 9.69621 5.39839 9.69378C5.20982 9.69728 5.0244 9.64513 4.8653 9.54385C4.70619 9.44257 4.58047 9.29665 4.50382 9.12432C4.42718 8.95199 4.40302 8.7609 4.43437 8.57492C4.46571 8.38894 4.55116 8.21632 4.68005 8.07863C4.80894 7.94094 4.97555 7.84429 5.15906 7.80075C5.34257 7.75721 5.53484 7.76872 5.71184 7.83383C5.88885 7.89894 6.04275 8.01477 6.1543 8.16684C6.26585 8.31892 6.33011 8.5005 6.33905 8.68889C6.33699 8.76454 6.35031 8.83982 6.3782 8.91017C6.40609 8.98052 6.44797 9.04448 6.5013 9.09816C6.55464 9.15185 6.61832 9.19415 6.68848 9.22251C6.75865 9.25086 6.83384 9.26467 6.9095 9.26311C7.23061 9.25556 7.43083 9.01378 7.4195 8.51133Z" fill="#2E8B57"/>
<path id="Vector_5" d="M13.1315 2.72378C11.687 2.74728 10.2474 2.54982 8.86257 2.13822C8.49551 2.00727 8.14345 1.83757 7.81235 1.632C7.53657 1.462 7.54035 1.31089 7.81235 1.13711C8.10764 0.95071 8.42324 0.798616 8.75302 0.68378C10.2289 0.224815 11.772 0.0191649 13.3166 0.0755571C14.7448 0.0515602 16.1678 0.254302 17.5326 0.676224C17.8746 0.799915 18.2026 0.95947 18.511 1.15222C18.8019 1.326 18.8095 1.46578 18.511 1.632C18.1178 1.8595 17.7027 2.04681 17.2719 2.19111C15.9238 2.56298 14.5298 2.74231 13.1315 2.72378Z" fill="#2E8B57"/>
<path id="Vector_6" d="M18.7984 2.83711C18.7984 3.25267 18.7984 3.70978 18.7984 4.16311C18.7991 4.28448 18.7636 4.40329 18.6962 4.50428C18.6289 4.60526 18.5329 4.6838 18.4206 4.72978C17.8901 4.97438 17.3405 5.17526 16.7773 5.33044C14.4054 5.86305 11.9449 5.86305 9.57305 5.33044C9.47339 5.30021 9.37813 5.25703 9.28972 5.202C8.82505 4.93756 8.3566 4.67311 7.89572 4.40489C7.82772 4.36333 7.72949 4.29155 7.72949 4.23489C7.72949 3.774 7.72949 3.30933 7.72949 2.90133C11.3213 4.12562 15.221 4.10299 18.7984 2.83711Z" fill="#2E8B57"/>
<path id="Vector_7" d="M10.6797 6.67912C13.4564 6.92089 16.1575 6.91334 18.7679 5.82156V7.17778C18.1861 7.23067 17.6006 7.26467 17.0226 7.34023C15.9407 7.43048 14.8851 7.72128 13.9097 8.19778C13.7177 8.28896 13.5407 8.40868 13.3846 8.55289C13.3156 8.62038 13.232 8.67115 13.1403 8.70127C13.0486 8.7314 12.9513 8.74009 12.8557 8.72667C12.5044 8.704 12.153 8.70778 11.8055 8.68134C11.7651 8.67789 11.726 8.66519 11.6913 8.64423C11.6565 8.62327 11.6271 8.5946 11.6052 8.56045C11.3973 7.88868 11.0849 7.25382 10.6797 6.67912Z" fill="#2E8B57"/>
<path id="Vector_8" d="M10.4644 14.5747C10.793 13.974 11.0877 13.4413 11.3937 12.8784C11.4138 12.8478 11.4406 12.8221 11.4719 12.8031C11.5033 12.7841 11.5385 12.7725 11.575 12.7689C11.9981 12.7689 12.4212 12.8104 12.8746 12.8331V14.7824L10.4644 14.5747Z" fill="#2E8B57"/>
<path id="Vector_9" d="M12.8446 11.7413L11.8057 11.6847L11.9039 9.79578C12.1683 9.79578 12.4554 9.79578 12.7463 9.79578C12.7803 9.79578 12.8408 9.88267 12.8408 9.93178C12.8446 10.5324 12.8446 11.118 12.8446 11.7413Z" fill="#2E8B57"/>
</g>
<defs>
<clipPath id="clip0_212_22">
<rect width="24.9333" height="17" fill="white"/>
</clipPath>
</defs>
</svg>
