<svg width="20" height="20" viewBox="0 0 20 20" fill="none" xmlns="http://www.w3.org/2000/svg">
<g id="reset-01 1">
<path id="Vector" d="M17.0915 11.6641C16.2827 15.037 13.5001 17.3894 9.98433 17.3894C8.11736 17.3817 6.32422 16.6593 4.97314 15.3708L3.74444 16.5995C3.65932 16.6829 3.55157 16.7394 3.43459 16.762C3.3176 16.7846 3.19656 16.7723 3.08651 16.7267C2.97647 16.681 2.88228 16.604 2.81568 16.5052C2.74907 16.4064 2.71299 16.2902 2.71191 16.1711V11.9016C2.71327 11.7401 2.77812 11.5857 2.89245 11.4717C3.00677 11.3577 3.16138 11.2933 3.32282 11.2924H7.59059C7.75174 11.2937 7.90591 11.3583 8.01986 11.4723C8.13382 11.5862 8.19843 11.7404 8.19978 11.9016C8.20079 11.9808 8.1861 12.0595 8.15657 12.133C8.12703 12.2066 8.08323 12.2735 8.02769 12.3301L6.71123 13.6362C7.2377 14.13 7.86758 14.5002 8.55508 14.7201C9.24259 14.9399 9.97043 15.0037 10.6857 14.907C11.401 14.8102 12.0857 14.5553 12.6901 14.1608C13.2945 13.7662 13.8034 13.2419 14.1798 12.6261C14.378 12.2684 14.5472 11.8955 14.6858 11.5109C14.7025 11.448 14.7396 11.3925 14.7913 11.3529C14.843 11.3134 14.9063 11.2921 14.9714 11.2924H16.7973C16.8778 11.2933 16.9547 11.3256 17.0117 11.3826C17.0686 11.4395 17.101 11.5165 17.1019 11.597C17.1035 11.6198 17.1 11.6428 17.0915 11.6641ZM17.3393 8.24298C17.3384 8.40443 17.274 8.55904 17.16 8.67336C17.046 8.78769 16.8916 8.85254 16.7302 8.85389H12.4624C12.3008 8.85255 12.1462 8.78775 12.0319 8.67347C11.9176 8.5592 11.8528 8.40459 11.8515 8.24298C11.8521 8.16306 11.8686 8.08405 11.8999 8.0105C11.9312 7.93696 11.9767 7.87034 12.0339 7.81449L13.3486 6.49974C12.8194 6.00837 12.1878 5.64052 11.4992 5.42272C10.8107 5.20491 10.0824 5.14256 9.36689 5.24018C8.65135 5.33779 7.96638 5.59292 7.36134 5.98719C6.7563 6.38146 6.24627 6.90505 5.868 7.52022C5.67111 7.87762 5.50252 8.24989 5.36378 8.63362C5.34736 8.69683 5.31038 8.75278 5.25866 8.79266C5.20694 8.83254 5.14342 8.85408 5.07812 8.85389H3.18515C3.10435 8.85299 3.02714 8.82038 2.97016 8.76308C2.91319 8.70578 2.88101 8.62838 2.88056 8.54758V8.48219C3.69625 5.09895 6.50644 2.7534 10.0222 2.7534C11.8979 2.7642 13.6995 3.48694 15.0626 4.77542L16.3017 3.54672C16.3575 3.48963 16.4241 3.44424 16.4977 3.41322C16.5713 3.38219 16.6503 3.36615 16.7302 3.36603C16.8914 3.36693 17.0459 3.4314 17.1599 3.54545C17.274 3.6595 17.3384 3.81393 17.3393 3.97522V8.24298Z" fill="#2E8B57"/>
</g>
</svg>
