<svg width="30" height="30" viewBox="0 0 30 30" fill="none" xmlns="http://www.w3.org/2000/svg">
<path id="Vector" d="M0 23.0146C0.0555947 22.5402 0.102576 22.065 0.167567 21.5913C0.637382 18.1692 2.03482 15.1818 4.35988 12.6291C7.02607 9.70097 10.3328 7.93345 14.2393 7.2967C14.7772 7.20888 15.3222 7.17124 15.8891 7.10772V0L30 11.5093L15.9056 23.0468V15.9234C15.3269 15.9861 14.7858 16.019 14.2526 16.1061C10.6922 16.6856 7.62665 18.2422 5.10219 20.8299C3.78357 22.1834 2.71866 23.7172 1.97714 25.4691C1.38439 26.8719 0.778326 28.2693 0.17618 29.6675C0.12685 29.782 0.0587268 29.8894 0 30V23.0146Z" fill="white"/>
</svg>
