<svg width="30" height="30" viewBox="0 0 30 30" fill="none" xmlns="http://www.w3.org/2000/svg">
<g id="support-01 1">
<path id="Vector" d="M22.3514 4.13269H7.71533C5.69523 4.13269 4.05762 5.77031 4.05762 7.79041V22.4264C4.05762 24.4465 5.69523 26.0842 7.71533 26.0842H22.3514C24.3715 26.0842 26.0091 24.4465 26.0091 22.4264V7.79041C26.0091 5.77031 24.3715 4.13269 22.3514 4.13269Z" stroke="#999999" stroke-miterlimit="10"/>
<path id="Vector_2" d="M8.63167 11.9876C9.14794 9.06817 11.959 6.91794 15.0695 6.9515C18.1799 6.98506 20.8619 9.14819 21.3627 11.9721C21.5795 11.9721 21.7989 11.9721 22.0158 12.0134C22.3003 12.0536 22.5609 12.1945 22.7504 12.4105C22.9399 12.6264 23.0456 12.9032 23.0483 13.1905C23.0483 14.3986 23.0483 15.6066 23.0483 16.8044C23.0443 17.1244 22.915 17.4301 22.6882 17.6559C22.4614 17.8818 22.1551 18.0097 21.8351 18.0124C21.6854 18.0124 21.5356 18.0124 21.3627 18.0124C21.3343 18.1286 21.3111 18.2422 21.2775 18.3506C20.5625 20.8519 18.8769 22.3129 16.3885 22.8963C15.9634 22.9822 15.5315 23.0305 15.0979 23.0408C14.9958 23.0557 14.8917 23.0483 14.7927 23.0193C14.6937 22.9903 14.6021 22.9402 14.5242 22.8726C14.4463 22.805 14.3839 22.7214 14.3412 22.6275C14.2986 22.5335 14.2767 22.4315 14.277 22.3284C14.2752 22.2254 14.295 22.1231 14.3352 22.0282C14.3753 21.9333 14.4348 21.8478 14.5099 21.7773C14.5851 21.7068 14.6741 21.6528 14.7714 21.6188C14.8686 21.5848 14.9719 21.5715 15.0746 21.5798C16.2528 21.5849 17.3958 21.1786 18.3064 20.4311C18.8323 20.0193 19.2563 19.4919 19.5454 18.8898C19.8346 18.2877 19.9812 17.6271 19.974 16.9592C19.974 15.697 19.9507 14.4321 19.974 13.1725C20.0282 10.9887 18.5104 9.0914 16.2853 8.57772C14.4293 8.14665 12.7463 8.539 11.3575 9.88645C10.9314 10.2888 10.5936 10.7754 10.3656 11.3153C10.1376 11.8553 10.0245 12.4367 10.0333 13.0227C10.0333 14.2282 10.0333 15.4363 10.0333 16.6366C10.0333 17.5091 9.51706 18.015 8.64974 18.0124C8.43 18.0194 8.21003 18.0108 7.99151 17.9866C7.70636 17.9469 7.44505 17.8058 7.25543 17.5892C7.06582 17.3725 6.96058 17.0948 6.95898 16.8069C6.95898 15.6023 6.95898 14.3977 6.95898 13.1931C6.96368 12.8733 7.09317 12.568 7.31983 12.3423C7.54648 12.1166 7.85236 11.9884 8.1722 11.9851C8.31675 11.9825 8.46647 11.9876 8.63167 11.9876Z" fill="#999999"/>
</g>
</svg>
