<svg id="Layer_1" data-name="Layer 1" xmlns="http://www.w3.org/2000/svg" viewBox="0 0 116.22 116.22"><defs><style>.cls-1{fill:none;stroke-width:6px;}.cls-1,.cls-2{stroke:#000;stroke-miterlimit:10;}.cls-2{stroke-width:2px;}</style></defs><rect class="cls-1" x="15.72" y="16.01" width="85.04" height="85.04" rx="14.17"/><path class="cls-2" d="M25,40V38.52a4.1,4.1,0,0,1,3.42-3.2l19.26-3.4,24.05-4.24c4.36-.76,8.71-1.55,13.08-2.28a3.8,3.8,0,0,1,4.29,3c.33,1.65.63,3.3.88,5A3.87,3.87,0,0,1,86.61,38L76.15,39.86l-30,5.3-2.91.53,0,.11H87.12c2.76,0,4.34,1.58,4.34,4.34V79.33c0,2.79,0,5.58,0,8.37a3.86,3.86,0,0,1-3.2,3.91,1.82,1.82,0,0,0-.3.11H29.83c-.34-.12-.7-.2-1-.35a4,4,0,0,1-2.43-4.05c0-12.06,0-24.12,0-36.18a32.22,32.22,0,0,0-.59-7.27C25.52,42.57,25.29,41.26,25,40ZM88.86,58.64H29V87.29c0,1.38.43,1.8,1.83,1.8H87c1.41,0,1.82-.4,1.82-1.8V58.64ZM42.48,43.18c-.93-2.35-1.81-4.6-2.72-6.83a.72.72,0,0,0-.59-.27c-.73.09-1.45.25-2.17.37l-8.1,1.43c-.86.15-1.38.69-1.26,1.45.33,2.06.71,4.12,1.09,6.27ZM29,55.92a1.13,1.13,0,0,0,.24,0c3.22,0,6.44,0,9.66,0,.41,0,.5-.23.61-.52l1.74-4.81c.26-.73.53-1.45.81-2.23H29Zm25.35,0c.14,0,.2.07.26.07,2.93,0,5.87,0,8.81,0,.18,0,.45-.27.53-.48.66-1.75,1.3-3.52,1.93-5.28.22-.58.42-1.16.65-1.8-3.1,0-6.12,0-9.14,0a.63.63,0,0,0-.44.34C56.1,51.12,55.24,53.49,54.37,55.91Zm-12.25,0a2.47,2.47,0,0,0,.38,0h8.62c.39,0,.52-.17.63-.49l2.38-6.57c0-.16.08-.32.14-.53-3.06,0-6.06,0-9.06,0a.75.75,0,0,0-.5.44c-.41,1-.77,2.07-1.14,3.1C43.09,53.26,42.62,54.57,42.12,55.93Zm24.49,0a1.82,1.82,0,0,0,.3.07c2.91,0,5.83,0,8.74,0a.82.82,0,0,0,.56-.46c.65-1.73,1.27-3.48,1.9-5.22l.66-1.81a.94.94,0,0,0-.19-.07c-3,0-5.92,0-8.88,0-.38,0-.45.22-.55.49L67.59,53.2ZM77,37.08c-.07-.23-.13-.42-.19-.59-.8-2-1.62-4-2.38-6-.19-.51-.44-.57-.92-.48-1.67.32-3.35.6-5,.9l-3.34.61c.93,2.34,1.82,4.6,2.74,6.86a.64.64,0,0,0,.54.23c.9-.12,1.79-.3,2.68-.46ZM42.24,35.53c.93,2.34,1.82,4.61,2.75,6.86.06.15.45.26.66.23,1.68-.27,3.36-.58,5-.88,1.05-.18,2.1-.38,3.22-.59L51.06,34ZM62.5,32l-8.82,1.56c.92,2.32,1.81,4.57,2.73,6.8a.65.65,0,0,0,.56.27c1.6-.24,3.2-.53,4.79-.81l3.59-.65C64.38,36.7,63.46,34.36,62.5,32Zm14.27-2.52c.92,2.32,1.8,4.57,2.72,6.8a.67.67,0,0,0,.57.3c2.06-.34,4.12-.72,6.18-1.1a1.28,1.28,0,0,0,1.2-1.7c-.25-1.56-.52-3.11-.81-4.66A1.27,1.27,0,0,0,85.08,28c-.83.12-1.66.28-2.49.43ZM88.86,56V50c0-1.14-.47-1.6-1.62-1.6-1.71,0-3.41,0-5.12,0a.69.69,0,0,0-.77.57c-.76,2.16-1.55,4.3-2.33,6.45-.06.17-.1.35-.16.56Z"/><path d="M51.26,73.78V66.84c0-1.49,1-2,2.28-1.29l12.05,7c1.32.77,1.33,1.86,0,2.62q-6.07,3.51-12.16,7c-1.19.69-2.18.13-2.19-1.24C51.25,78.53,51.26,76.15,51.26,73.78Zm2.63,5.13,8.79-5.08-8.79-5.08Z"/><path d="M32.83,42.31a1.27,1.27,0,0,1-1.3-1.25,1.33,1.33,0,0,1,1.32-1.32A1.31,1.31,0,0,1,34.11,41,1.27,1.27,0,0,1,32.83,42.31Z"/><path d="M33.79,53.47a1.25,1.25,0,0,1-1.27-1.26,1.28,1.28,0,1,1,2.55,0A1.25,1.25,0,0,1,33.79,53.47Z"/></svg>