<svg width="226" height="26" viewBox="0 0 226 26" fill="none" xmlns="http://www.w3.org/2000/svg">
<path d="M4.33228 4.93156H9.57263L20.3958 18.0783H20.4447L31.2189 4.93156H35.9151L22.2975 21.3681H17.9499L4.33228 4.93156Z" fill="#999999"/>
<path d="M38.6606 4.33231H42.3937V7.33772H38.6606V4.33231ZM38.6851 9.02846H42.3937V21.3681H38.6851V9.02846Z" fill="#999999"/>
<path d="M46.2246 9.02846H49.9302L49.8812 12.9755H49.9546C50.8443 10.4777 53.5868 8.6952 58.1087 8.6952C64.0889 8.6952 66.1893 11.1931 66.1893 14.8895C66.1876 15.4907 66.1468 16.0912 66.067 16.6872H62.655C62.6794 16.3815 62.7314 15.9381 62.7314 15.3878C62.7314 13.1896 61.3709 11.667 57.1945 11.667C52.5259 11.667 49.9302 14.0884 49.9302 17.2131V21.3681H46.2246V9.02846Z" fill="#999999"/>
<path d="M71.3318 16.5466V11.777H67.9473V9.0254H70.7631C71.4296 9.0254 71.6803 8.7747 71.7537 8.02564L71.9249 6.22789H75.0373V9.0254H85.7626V11.777H75.0373V16.2225C75.0373 17.8704 75.8781 18.7937 81.2652 18.7937C82.7429 18.8013 84.2199 18.7268 85.6893 18.5706V21.2427C84.0429 21.4877 82.3791 21.5961 80.7149 21.5668C73.1846 21.5668 71.3318 19.2432 71.3318 16.5466Z" fill="#999999"/>
<path d="M88.9271 15.2227V9.02846H92.6388V14.2749C92.6388 17.3965 94.3448 18.6959 99.6066 18.6959C104.449 18.6959 108.378 16.9471 108.378 13.4005V9.02846H112.084V21.3681H108.375C108.4 20.3928 108.452 18.8182 108.452 17.2467H108.4C107.482 20.2185 103.954 21.6677 98.295 21.6677C91.8194 21.6677 88.9271 19.1423 88.9271 15.2227Z" fill="#999999"/>
<path d="M115.224 17.7328C115.224 15.2869 117.596 14.3116 121.623 14.3116H132.917V14.064C132.917 12.3671 131.137 11.2175 125.652 11.2175C120.883 11.2175 119.278 12.1164 119.278 13.052C119.277 13.1443 119.285 13.2365 119.302 13.3271H115.841C115.806 13.1716 115.79 13.0126 115.792 12.8532C115.792 10.4563 118.981 8.70743 125.9 8.70743C133.115 8.70743 136.622 10.9057 136.622 14.3758V21.3681H132.917C132.966 20.4937 133.039 19.2676 133.039 18.4452H133.015C132.177 20.3683 129.407 21.6677 123.576 21.6677C117.202 21.6677 115.224 19.6926 115.224 17.7328ZM132.917 16.3845V16.2959H122.522C120.201 16.2959 118.691 16.4212 118.691 17.5188C118.691 18.436 119.929 19.2187 124.426 19.2187C130.098 19.2187 132.917 17.6717 132.917 16.3723V16.3845Z" fill="#2E8B57"/>
<path d="M139.888 9.02846H143.596L143.547 12.9755H143.621C144.51 10.4777 147.253 8.6952 151.775 8.6952C157.755 8.6952 159.855 11.1931 159.855 14.8895C159.854 15.4909 159.812 16.0915 159.73 16.6872H156.321C156.345 16.3815 156.394 15.9381 156.394 15.3878C156.394 13.1896 155.037 11.667 150.861 11.667C146.189 11.667 143.596 14.0884 143.596 17.2131V21.3681H139.888V9.02846Z" fill="#2E8B57"/>
<path d="M164.998 16.5466V11.777H161.613V9.0254H164.429C165.096 9.0254 165.346 8.7747 165.417 8.02564L165.591 6.22789H168.703V9.0254H179.429V11.777H168.703V16.2225C168.703 17.8704 169.544 18.7937 174.931 18.7937C176.409 18.8013 177.886 18.7268 179.355 18.5706V21.2427C177.711 21.4872 176.049 21.5956 174.387 21.5668C166.851 21.5668 164.998 19.2432 164.998 16.5466Z" fill="#2E8B57"/>
<path d="M200.115 4.93156H195.492L181.951 21.3681H186.818L197.544 7.82996H197.593L208.269 21.3681H213.656L200.115 4.93156Z" fill="#999999"/>
<path d="M216.995 4.93156H220.997V21.3681H216.995V4.93156Z" fill="#999999"/>
</svg>
